<svg id="Layer_1" data-name="Layer 1" xmlns="http://www.w3.org/2000/svg" viewBox="0 0 73.02 39.83"><defs><style>.cls-1{fill:#28331d;}</style></defs><title>backbuttongreen</title><path class="cls-1" d="M19.4,21.1a4.25,4.25,0,0,0,.43.21,4.3,4.3,0,0,0,.41.16l.7.31a1.89,1.89,0,0,1,.45.15l.55.22s0,0,0,0,0,0,.1,0l.09.07.16,0a.47.47,0,0,1,.17.09l.42.15c.21.07.4.14.58.22a1.58,1.58,0,0,0,.28.08l.27.08a1.07,1.07,0,0,0,.46.21.4.4,0,0,1,.16.08,1,1,0,0,0,.21.11c.33.14.74.3,1.23.47l1.34.53,1.63.7,1.62.79a10.16,10.16,0,0,1,1.7,1.09.53.53,0,0,0,.15.32.32.32,0,0,1,.08.35.15.15,0,0,0,0,.16.39.39,0,0,1,.07.16c0,.13,0,.23,0,.28a.47.47,0,0,0-.12.3.27.27,0,0,0,.07.24c.06.09,0,.19-.09.29a.25.25,0,0,0,.16.28c.14.07.16.16.08.26a1.27,1.27,0,0,1,.11.4,2.68,2.68,0,0,1,0,.4c0,.17.07.31.09.43a.4.4,0,0,1-.13.37.53.53,0,0,1-.5.11.5.5,0,0,0-.46,0,.92.92,0,0,1-.12-.34c0-.12-.11-.17-.26-.15l-2.65-1.21c-.87-.4-1.76-.8-2.66-1.19,0-.11,0-.14-.09-.08s-.09.07-.14,0a.32.32,0,0,1-.1-.16c0-.08-.07-.12-.13-.13s-.1,0-.12.09-.07.08-.12,0l0-.1s0-.06,0-.07-.12,0-.15,0-.08.07-.14,0a.08.08,0,0,0,0-.07s0-.07-.13-.1a4.88,4.88,0,0,0-.59-.23.65.65,0,0,1-.17-.09l-.13,0-.17,0-.16,0c-.06,0-.08,0-.06-.08a.26.26,0,0,0,0-.12,1.55,1.55,0,0,0-.26-.09,1.3,1.3,0,0,0-.29-.07,2.26,2.26,0,0,1-.71-.28l-.19,0-.26,0c-.31-.09-.61-.2-.9-.31s-.6-.23-.93-.34a.6.6,0,0,0-.26-.07.73.73,0,0,1-.26-.06l-.07-.08a.22.22,0,0,0-.12-.07l-.29,0a.76.76,0,0,1-.27-.05l-.3-.08-.3-.08a7.43,7.43,0,0,1-1.26-.41c-.4-.18-.81-.36-1.24-.57-.26-.14-.38-.31-.34-.5a1.11,1.11,0,0,0-.07-.59l-.34-.23a.4.4,0,0,1-.2-.25q0-.18.06-.33a.75.75,0,0,1,.18-.36.75.75,0,0,1-.29-.34,1.45,1.45,0,0,0-.19-.34.34.34,0,0,1-.3-.14,1.14,1.14,0,0,0-.31-.32.31.31,0,0,0,0-.25.59.59,0,0,1,.1-.3c0-.09,0-.23-.07-.43a1,1,0,0,1,0-.5,1.16,1.16,0,0,1,.39-.66.26.26,0,0,0,.2-.12A1.83,1.83,0,0,1,15,18.7l.06.05s.06,0,.1-.06l0-.05a.09.09,0,0,1,.13,0,1.31,1.31,0,0,0,.3-.36,1.09,1.09,0,0,1,.27-.33s0,0,.07,0,.07,0,.11,0a.32.32,0,0,1,.15-.24l.29-.22c.34-.3.67-.56,1-.8s.61-.47.95-.72c0,0,0,0,.07,0s.06,0,.09,0v-.05s0,0,0,0a.91.91,0,0,0,.34-.1c.16-.06.24-.14.26-.24a1,1,0,0,1,.45-.29l.08-.1a.19.19,0,0,1,.17-.08,0,0,0,0,0,0,0h.06s0,0,0,0l0-.05,0,0a1.65,1.65,0,0,0,.34-.1.65.65,0,0,0,.39-.27,1.36,1.36,0,0,1,.37-.24l.51-.26.1-.12q.08-.09.12-.09l.1.07s0,0,0-.05l0-.05a.11.11,0,0,1,0-.08H22a.15.15,0,0,1,0,.08.4.4,0,0,0,.14-.15.34.34,0,0,1,.15-.14s.06,0,.1,0a.14.14,0,0,0,.14,0,.41.41,0,0,1,0-.1l.07-.08.1.07a.32.32,0,0,0,.14-.14.38.38,0,0,1,.14-.14s0,0,.06,0,.05,0,.08,0A.13.13,0,0,1,23.3,13c.07,0,.11-.06.12-.08a.14.14,0,0,1,.14,0,.21.21,0,0,0,.12.05,1.19,1.19,0,0,0,.19-.17.58.58,0,0,1,.2-.12l.8-.4c.3-.14.6-.28.91-.4l.35-.18.36-.17s0,0,.05,0,0,0,0,0a.1.1,0,0,1,.13,0,.29.29,0,0,0,.16,0,.24.24,0,0,0,.18-.15.2.2,0,0,1,.16-.13.32.32,0,0,1,.17,0,.35.35,0,0,0,.18,0,.6.6,0,0,0,.18-.15,3.08,3.08,0,0,0,.47-.19l.51-.24a.09.09,0,0,1,.11,0s0,0,.05,0a.14.14,0,0,1,.14-.06h.17a.67.67,0,0,0,.19-.19.29.29,0,0,1,.2-.14c.07,0,.12,0,.13,0a.32.32,0,0,1,.09-.08.25.25,0,0,0,.1-.08h.23a1.1,1.1,0,0,0,.25,0s0-.06,0-.08,0-.07.06-.08.05,0,.1,0,.1,0,.13,0a.2.2,0,0,0,0-.12s0-.08.08-.06a.57.57,0,0,0,.36-.09,1.76,1.76,0,0,1,.39-.18c.05,0,.08,0,.1,0s0,0,.08,0a.11.11,0,0,1,.12,0H32s0,0,0-.11,0-.09,0-.09l.18,0a.54.54,0,0,0,.19,0,.16.16,0,0,0,0-.11c0-.05,0-.06,0-.05a.09.09,0,0,1,.12,0l.13,0a.14.14,0,0,0,0-.13c0-.05,0-.06,0,0A.39.39,0,0,1,33,9c.09,0,.15,0,.16-.11a.36.36,0,0,1,.12-.08s.08,0,.1,0a1.35,1.35,0,0,1,.32-.12l.41-.13c.33-.06.62-.13.88-.2a.53.53,0,0,1,.59.13c.21.18.3.34.29.48s0,.36-.06.64a1.14,1.14,0,0,1,0,.58,3.19,3.19,0,0,0-.08.63c-.06,0-.1,0-.1,0a.13.13,0,0,1-.09.1.19.19,0,0,1-.13.07l-.17,0a.38.38,0,0,0-.17.08s-.08.05-.15.06-.08,0-.06,0h-.08a.16.16,0,0,0-.11.1.18.18,0,0,1-.11.1s-.07,0-.13,0-.08-.05-.1,0a.39.39,0,0,0,0,.09.41.41,0,0,1-.07.11h-.13a.36.36,0,0,0-.14,0,.92.92,0,0,0-.23.25.35.35,0,0,1-.34.12c0,.08,0,.12.1.11a.24.24,0,0,0,.15-.09.14.14,0,0,0,.14,0,.19.19,0,0,1,.16-.07.41.41,0,0,1,.16,0l.15,0a.64.64,0,0,0,.24-.1l.27-.14s0,0,.06,0,0,0,0,0a.46.46,0,0,1,.19-.1.73.73,0,0,1,.26-.06.74.74,0,0,0,.29,0c.1,0,.18,0,.23.16l-1.58.9c-.53.3-1.07.59-1.64.85l-.15.08-.17.06a.2.2,0,0,0-.12.1.2.2,0,0,1-.11.11.23.23,0,0,1-.14,0h-.13a.36.36,0,0,1-.18.09c-.09,0-.15.07-.17.14a.42.42,0,0,1-.21.13c-.12,0-.19,0-.24,0a.19.19,0,0,0-.15.12c0,.06-.06.1-.14.12a.22.22,0,0,1-.15.08.17.17,0,0,0-.12.05,2.25,2.25,0,0,0-.56.23,4.51,4.51,0,0,1-.49.28c-.79.37-1.5.74-2.1,1.09Q25.21,17,23.1,18.23A34.38,34.38,0,0,0,19,20.93a.82.82,0,0,0,.73-.28,2.26,2.26,0,0,1,.66-.51s.05,0,.08,0a.31.31,0,0,1,.05.1.46.46,0,0,0-.19.1,1.07,1.07,0,0,1-.48.35A1,1,0,0,0,19.4,21.1Z"/><path class="cls-1" d="M63.85,21a.5.5,0,0,0,.34.08c.13,0,.16.05.11.19a8.92,8.92,0,0,0-.88.58,5,5,0,0,1-.94.55,53.88,53.88,0,0,1-6.9.44.44.44,0,0,0-.22.05.41.41,0,0,1-.22,0l0-.09a.25.25,0,0,0-.18,0,.31.31,0,0,1-.19,0,.84.84,0,0,0-.33,0l-.32,0-.26,0,0-.09-.19.05a.33.33,0,0,1-.19,0v-.06l-.18,0-.13,0a.33.33,0,0,0-.17,0h-.22l-.27,0a.43.43,0,0,0-.19,0,.3.3,0,0,1-.13,0v-.06l0-.07-.18.06c-.08,0-.12,0-.13,0l0-.09-.21.06a.5.5,0,0,1-.22,0,1,1,0,0,0-.4,0s0,0-.07,0l-.18,0a1.1,1.1,0,0,0-.26,0l0-.1a.26.26,0,0,0-.18,0,.31.31,0,0,1-.19,0l0-.1a.3.3,0,0,0-.19,0c-.08,0-.12,0-.12,0a2,2,0,0,0-.6-.08l-.25.07a.33.33,0,0,1-.19,0v-.09a.62.62,0,0,0-.18.05c-.08,0-.12,0-.13,0s0,0,0,0v0a.45.45,0,0,0-.19,0L48,22.7a.87.87,0,0,0-.37-.08l-.62,0-.91,0a.87.87,0,0,1-.21,0,.44.44,0,0,0-.2-.05.3.3,0,0,0-.19,0,.27.27,0,0,1-.18,0l0-.1a.3.3,0,0,0-.19,0c-.08,0-.12,0-.12,0l-.21-.06-.21,0c-.83-.08-1.65-.15-2.44-.2s-1.58-.13-2.38-.24a1,1,0,0,0-.29,0,1.78,1.78,0,0,1-.35,0,.14.14,0,0,1-.08-.1s-.06-.05-.15-.06a1.29,1.29,0,0,0-.36,0,1.24,1.24,0,0,1-.36,0,.56.56,0,0,1-.21,0,.93.93,0,0,0-.21-.08.29.29,0,0,0-.13,0h-.19q-.48-.11-1-.24a4.58,4.58,0,0,0-1.2-.13.36.36,0,0,0-.25-.1.34.34,0,0,1-.24-.1c-.13,0-.19,0-.19-.1s-.08-.11-.24-.08c-1.17,0-2.32,0-3.45.07s-2.35.1-3.63.17l-.77,0-.76,0,0-.07s-.05,0-.13,0l-.59.1-.67.05s-.07,0-.07,0-.05,0-.13,0l-.19,0-.39,0a2.36,2.36,0,0,0-.75.14,2,2,0,0,0,.69,0l.86-.06c.22,0,.43,0,.64,0a4.57,4.57,0,0,1,.64,0h2.24l.94,0s0,.07-.11.1l-.24.07a4.24,4.24,0,0,0-.52,0l-.14,0a.1.1,0,0,1-.08-.05,3.23,3.23,0,0,0-.75.1,3.24,3.24,0,0,1-.76.1s-.06,0-.07,0-.05,0-.13,0h-.07l-.12,0a.75.75,0,0,0-.22,0l-.29,0c-.13,0-.36,0-.7,0l-.27,0H24a5.68,5.68,0,0,0-.77.05H23l-.39,0a3.07,3.07,0,0,1-.7,0,1.07,1.07,0,0,1-.25,0l-.32,0-1.26,0a6.55,6.55,0,0,0-1.66.25c0,.13.18.25.47.37a.48.48,0,0,0,.18.07.35.35,0,0,1,.17.06s.06,0,0,.11,0,.1,0,.11l.19,0a13.66,13.66,0,0,0,1.94.69c.71.21,1.43.4,2.17.59.46.13,1,.26,1.58.41L26.9,25c.6.14,1.18.29,1.75.45l1.56.42a.51.51,0,0,1,0,.31,2.35,2.35,0,0,0-.16.29,1.45,1.45,0,0,1-.22.21,3.15,3.15,0,0,0-.26.26,2.75,2.75,0,0,1-.64,0h-.65c-.4,0-.72-.1-1-.15l-.74-.14a5.15,5.15,0,0,1-.58-.12,5.43,5.43,0,0,1-.55-.12,3.6,3.6,0,0,0-.61-.11,1.78,1.78,0,0,1-.44-.13,3.8,3.8,0,0,0-.59-.17.57.57,0,0,0-.29,0,.48.48,0,0,1-.29,0,2.16,2.16,0,0,1-.36-.15,1.76,1.76,0,0,0-.49-.15,5.31,5.31,0,0,0-.77-.14,4.15,4.15,0,0,1-.78-.15,9.23,9.23,0,0,1-1-.33,10.21,10.21,0,0,0-1-.33.91.91,0,0,0-.37-.09,2.19,2.19,0,0,1-.37-.06c-.09,0-.14-.06-.12-.11s0-.08-.12-.11a.33.33,0,0,0-.2,0,.47.47,0,0,1-.2,0s-.05-.05,0-.1,0-.08,0-.09a.68.68,0,0,0-.2,0,.86.86,0,0,1-.22-.08l-.28-.27a1.59,1.59,0,0,1-.22-.23.74.74,0,0,1,0-.53c.07-.19.12-.38.17-.56a1.44,1.44,0,0,0,0-.54.61.61,0,0,1,.13-.46.23.23,0,0,1,.17-.1.52.52,0,0,0,.18-.07.44.44,0,0,0-.05-.09.06.06,0,0,1,0-.1,2.14,2.14,0,0,1,.63-.39c.28-.12.51-.24.7-.34a.76.76,0,0,0,.36-.16,1.62,1.62,0,0,0,.18-.2,1.07,1.07,0,0,1,.18-.19,1.1,1.1,0,0,1,.42-.15,1.52,1.52,0,0,0,.51-.18,1.68,1.68,0,0,1,.71-.16c.21,0,.42,0,.63-.08l.88-.12.19-.05a.33.33,0,0,1,.19,0L23.88,19l1.46-.16c1.74-.13,3.55-.25,5.43-.37s3.69-.19,5.45-.23l1.28-.08,1.34-.08,1.19,0a2.53,2.53,0,0,1,1,.16.17.17,0,0,0,.21-.06.32.32,0,0,1,.14-.11c.13,0,.18,0,.16,0a.22.22,0,0,1-.08.09s0,.05,0,.06a.79.79,0,0,0,.35,0c.21,0,.45-.06.72-.11a3.55,3.55,0,0,1,.79-.06s.07,0,.07,0,0,0,.14,0a1.8,1.8,0,0,1,.61,0q.3,0,.69,0t.81,0h.87a2.06,2.06,0,0,1,.36,0,2,2,0,0,0,.42,0,5,5,0,0,0,.55,0,5.79,5.79,0,0,1,.61,0c.05,0,.06,0,.05.06s0,0,.16,0a2.52,2.52,0,0,1,.78,0,5.07,5.07,0,0,0,.85,0,3.82,3.82,0,0,0,.58,0,3.88,3.88,0,0,1,.58,0c.08,0,.12,0,.1,0s0,0,.1,0a.59.59,0,0,1,.33,0,.64.64,0,0,0,.39,0,1.5,1.5,0,0,1,.37.05,1,1,0,0,0,.42,0,.85.85,0,0,1,.32,0l.4.05c1,0,2,.11,2.84.2l3,.31.31.07a.72.72,0,0,0,.29,0h.06l.12,0,.28.09.29.1a1.1,1.1,0,0,0,.42,0,1.29,1.29,0,0,1,.42,0,.11.11,0,0,1,.09.08.11.11,0,0,0,.08.09l.21-.06a.24.24,0,0,1,.16,0,2,2,0,0,1,.34.07,2.35,2.35,0,0,0,.34.06c.18,0,.48.11.89.23s.63.23.66.33q.23.42-.09.63C64.4,20.61,64.14,20.78,63.85,21ZM35.09,19.3a1,1,0,0,1,.45,0,2.79,2.79,0,0,0,.4.07l.37,0a.43.43,0,0,0,.31-.16,2.3,2.3,0,0,1-.75-.07A.92.92,0,0,0,35.09,19.3Zm3,.51c-.22,0-.33,0-.35.05s-.09,0-.22,0l-.27,0-.25,0a1.29,1.29,0,0,0-.54,0,1.62,1.62,0,0,1-.54.08.45.45,0,0,1-.17,0l-.21-.07a.69.69,0,0,0-.2,0c-.06,0-.09.05-.07.13a.89.89,0,0,0,.43.05l.54-.06a1.46,1.46,0,0,1,.42,0,.25.25,0,0,1,.21.19,4.14,4.14,0,0,0,.81-.12,2.32,2.32,0,0,1,.76-.09q0-.14-.09-.12A.46.46,0,0,1,38.06,19.81Zm2.82-.73a1.2,1.2,0,0,1-.7.09,1.17,1.17,0,0,0-.69.09c-.07-.1-.2-.14-.42-.13h-.64v-.07a.69.69,0,0,0-.25,0,1,1,0,0,1-.25.06.56.56,0,0,1-.3-.05.61.61,0,0,0-.3-.06c0,.09,0,.12-.07.12a.26.26,0,0,0-.21.07.5.5,0,0,0-.17.12.45.45,0,0,1-.17.11,1.19,1.19,0,0,0-.55,0,1,1,0,0,1-.54,0c-.06.15,0,.2.2.16a2.46,2.46,0,0,1,.54,0l.46,0a1.44,1.44,0,0,1,.33.05,3.12,3.12,0,0,0,.74,0l.92-.11.37.06.43.05c.06-.13.25-.2.57-.22a2.5,2.5,0,0,0,.77-.15.11.11,0,0,0,.15.07l.25-.05a.55.55,0,0,1,.22,0c.07,0,.07.06,0,.16-.36.12-.59.14-.69.08a.83.83,0,0,0-.59,0c0,.07,0,.17.07.3s.13.11.18-.05a.56.56,0,0,1,.42,0c.08.05.23,0,.47-.06,0,.17.17.17.39,0l.06.29a1.8,1.8,0,0,1,.82-.1.74.74,0,0,0,.67-.2c-.21,0-.32,0-.32-.13s-.11-.15-.32-.11c0,.07-.08.1-.17.07a.77.77,0,0,0-.38,0c0-.08-.12-.11-.28-.07s-.22,0-.16-.14a1.36,1.36,0,0,0,.75-.1,1,1,0,0,1,.78,0,1.7,1.7,0,0,1,.46-.11c.15,0,.24-.07.26-.14a10.12,10.12,0,0,0-1.65.11A2.73,2.73,0,0,1,40.88,19.08Zm-4.62,1.09c0,.15.18.22.43.21a1,1,0,0,0-.07-.2C36.58,20.11,36.46,20.11,36.26,20.17Zm2.94-1.35a1.15,1.15,0,0,1-.61,0c-.21-.05-.27,0-.18.23a3.5,3.5,0,0,1,.53-.12C39.08,18.94,39.17,18.89,39.2,18.82Zm.31-.06a.08.08,0,0,1,0,.09.07.07,0,0,0,0,.09,1.32,1.32,0,0,0,.54,0c.27,0,.32-.07.14-.11s-.2,0-.22-.12Zm2.43-.12a1,1,0,0,0-.37.07.84.84,0,0,1-.37.07.15.15,0,0,1-.18-.06c0-.06-.11-.08-.24,0l-.26.25a1.84,1.84,0,0,1,.58,0,1.75,1.75,0,0,0,.52,0l.38,0,.52,0a1.31,1.31,0,0,0,.4-.07c.1,0,.12-.08.07-.16a1.27,1.27,0,0,1-.73.1A1.44,1.44,0,0,0,41.94,18.64Zm-.82-.21c-.07.09-.06.13,0,.15a1,1,0,0,0,.29,0,.79.79,0,0,0,.27-.1q.12-.07,0-.15Zm.54,2.43a.26.26,0,0,1-.21-.05c-.05,0-.1,0-.16.12a1.45,1.45,0,0,1,.38,0,.76.76,0,0,1,.21.08.87.87,0,0,0,.21,0,.7.7,0,0,0,.29,0l.29,0a.52.52,0,0,1,.2.06.43.43,0,0,0,.21.06,5,5,0,0,0,.58,0,5,5,0,0,1,.58,0,.51.51,0,0,1,.21.09.53.53,0,0,0,.21.06.46.46,0,0,0,.26,0,.84.84,0,0,1,.46.06.33.33,0,0,0,.21.06,1,1,0,0,0,.25,0,1.13,1.13,0,0,1,.26,0c.31,0,.57,0,.79,0a1.72,1.72,0,0,1,.45,0l.33,0a1.1,1.1,0,0,0,.26,0,1.19,1.19,0,0,1,.32,0,.19.19,0,0,1,.14,0,.5.5,0,0,0,.22.09,3.27,3.27,0,0,0,.64,0,2.9,2.9,0,0,1,.51,0,.53.53,0,0,1,.21.06.33.33,0,0,0,.21.06,5,5,0,0,0,.58,0,4.79,4.79,0,0,1,.57,0l.08,0s0,0,.13,0a.21.21,0,0,0,.15,0,.2.2,0,0,1,.16,0,.58.58,0,0,1,.21.06.32.32,0,0,0,.2.06,3.39,3.39,0,0,0,.55,0,5.14,5.14,0,0,1,.55,0c.08,0,.12,0,.1,0s0,0,.1,0a.47.47,0,0,0,.19,0l.18-.06.18.07.18.06a4.06,4.06,0,0,0,.61,0l.61,0,.75,0a2.67,2.67,0,0,0,.54,0h.53a.18.18,0,0,0,.22-.16c-2.51-.23-5.09-.4-7.72-.49S44.47,20.87,41.66,20.86Zm4.24-2.21c-.26,0-.48.06-.66.1a3.83,3.83,0,0,1-.6.05s-.08,0-.12-.06a.19.19,0,0,0-.11-.09,2.18,2.18,0,0,0-.63.07,1.42,1.42,0,0,1-.65,0,.26.26,0,0,1,.09.1s.05,0,.13,0,.12,0,.1,0,0,0,.11,0a.58.58,0,0,0,.28-.05.74.74,0,0,1,.28-.06.12.12,0,0,1,.08.09.11.11,0,0,0,.08.08,1.65,1.65,0,0,0,.93-.19.68.68,0,0,0,.54.08,4.41,4.41,0,0,1,.7-.06l.34-.08c.1,0,.06,0-.11,0C46.23,18.78,46,18.77,45.9,18.65Zm.12.54s0-.08.07-.13.08-.08.07-.1a.46.46,0,0,0-.25.05.63.63,0,0,1-.31.06.26.26,0,0,1-.17-.05.35.35,0,0,0-.17-.05,2.61,2.61,0,0,0-.54.05c-.15,0-.33.05-.54.07.07.14.23.2.46.19s.5,0,.8-.07l.29.14a.9.9,0,0,0,.35.09c-.06-.05,0-.09,0-.1a1.82,1.82,0,0,1,.31-.05l.31,0c.09,0,.1-.06,0-.11a.54.54,0,0,0-.47,0C46.17,19.26,46.08,19.27,46,19.19Zm.2.92c.23.05.35,0,.35-.17s-.06-.2-.22-.15c0,.09,0,.14-.16.16Zm2.39-.64c0-.07,0-.12-.1-.14l-.14,0c-.18-.06-.29-.06-.33,0s0,.09,0,.14a.39.39,0,0,0,.25.12A.34.34,0,0,0,48.61,19.47Zm1.46-.12c-.08,0-.08.07,0,.1a.9.9,0,0,0,.27.06.52.52,0,0,0,.26,0q.09,0,0-.15l-.19,0-.2,0A.2.2,0,0,0,50.07,19.35Z"/></svg>
