<svg id="Layer_1" data-name="Layer 1" xmlns="http://www.w3.org/2000/svg" viewBox="0 0 359.49 196.47"><defs><style>.cls-1{fill:#28331d;}.cls-2{font-size:26.94px;fill:#1d1d1b;font-family:HelveticaNeue-Thin, Helvetica Neue;font-weight:200;}</style></defs><title>Logo</title><path class="cls-1" d="M97.11,33a1.17,1.17,0,0,1-.68,1.14,6.16,6.16,0,0,1-1.52.48c-.57.11-1.1.19-1.61.25a2.09,2.09,0,0,0-1.27.56c-.91.33-1.19,1.08-.85,2.27-.67.22-1,.11-1.1-.32s-.25-.65-.59-.65c-.57-.11-.88,0-.93.4s-.25.57-.59.57a3.47,3.47,0,0,0-1.19.41,12.81,12.81,0,0,0-1.35.73,2.53,2.53,0,0,0-1.53,2.11,2.92,2.92,0,0,0-2.36.81,2.37,2.37,0,0,1-2.2.64c-.34,0-.46.17-.34.49s0,.49-.17.49a.59.59,0,0,1-.76.08.81.81,0,0,0-.77-.08.86.86,0,0,0-.33.56.88.88,0,0,1-.34.57h-.85v.65a1.33,1.33,0,0,1-.51-.16.33.33,0,0,0-.5.16v.32a.73.73,0,0,1-.51.17.48.48,0,0,1-.34-.17,4,4,0,0,1-.51.82,5.13,5.13,0,0,1-.68.48,1.67,1.67,0,0,1-.84.25c-.45,0-.74.18-.85.4v.32H70.2A9.7,9.7,0,0,1,68,49.5c-.11.11-.14.19-.08.24s-.08.08-.42.08a1,1,0,0,0-.85.57,1.11,1.11,0,0,1-1,.57,3.91,3.91,0,0,0-1.78,1c-.62.54-1.22,1.08-1.78,1.62a7.22,7.22,0,0,0-1,.57,5,5,0,0,0-.68.57,1.69,1.69,0,0,0-.59.48,1.65,1.65,0,0,1-.6.49h-.84a2.74,2.74,0,0,0-.26.73.74.74,0,0,1-.42.57.69.69,0,0,1-.51.16,1.5,1.5,0,0,0-.67.16,1.42,1.42,0,0,0-.43.73c-.06.27-.14.41-.25.41a2.77,2.77,0,0,1-.93.4,3,3,0,0,0-1.1.57.87.87,0,0,0-.17.65.64.64,0,0,1-.17.48,2.58,2.58,0,0,1-1,.41,1.91,1.91,0,0,0-1,.57,2,2,0,0,0-.76.89,2.77,2.77,0,0,1-.6.89,1.14,1.14,0,0,1-.76.08.85.85,0,0,0-.76.24,3.91,3.91,0,0,0-.85,1.3,6.25,6.25,0,0,1-1,1.62,5.44,5.44,0,0,1-1.35.73A5.47,5.47,0,0,0,44,68a32.55,32.55,0,0,0-3.21,3.57q-1.53,2-3.22,3.73a3.41,3.41,0,0,1-.85.57,1.2,1.2,0,0,0-.67.73,1,1,0,0,0-.34.72,1,1,0,0,1-.34.73,3.85,3.85,0,0,1-1.27,1.06,4,4,0,0,0-1.27,1c-.11.11-.08.3.08.57s.14.4-.08.4a.73.73,0,0,1-.51.41,1.28,1.28,0,0,0-.51.24,1.6,1.6,0,0,0-.16.73,1,1,0,0,1-.34.73,1.42,1.42,0,0,1-.68.57,8.7,8.7,0,0,0-1,.57,2.61,2.61,0,0,0-.17.81,2.6,2.6,0,0,1-.16.81c-.34.54-.63,1-.85,1.38a11.11,11.11,0,0,0-.68,1.38A1.61,1.61,0,0,0,29.4,90a5.22,5.22,0,0,1,2.37.41c.34.11.91.24,1.7.4s1.63.35,2.54.57a3.07,3.07,0,0,0,.67-.08,1.64,1.64,0,0,1,.85.08.4.4,0,0,1,.42.24.41.41,0,0,0,.43.25,5.37,5.37,0,0,0,1.52.08,13.35,13.35,0,0,1,1.69-.08c.68.1,1.55.21,2.62.32s2.23.22,3.47.32c.91,0,2.09,0,3.56.08s3,.2,4.57.41q1.35.17,3.21.24c1.24.06,2.54.14,3.9.25a24,24,0,0,1,3.89.4l4.23.73a5.79,5.79,0,0,0,1.1-.16,1.2,1.2,0,0,1,1.1.16,2.36,2.36,0,0,0,1.53.33h1a.88.88,0,0,0,1,.32.87.87,0,0,1,1,.32V96a13,13,0,0,0,2.37.65,20.27,20.27,0,0,1,2.2.49c.11.21.14.35.09.4s.14.14.59.24a.67.67,0,0,1,.68.41,1.6,1.6,0,0,0,.84.73,1.17,1.17,0,0,1,.93.57c.28.38.6.78.93,1.21l.68.65.51.49a3.09,3.09,0,0,1-.09.57c-.05.27,0,.4.09.4a6.56,6.56,0,0,1,1.44,2.35,28.11,28.11,0,0,0,1.44,3.16,3.13,3.13,0,0,1,.25.73,2.62,2.62,0,0,0,.42.89c0,.11.14.28.43.49a.88.88,0,0,1,.42.65,1.69,1.69,0,0,1,.08,1,9.8,9.8,0,0,0-.08,1,11.58,11.58,0,0,1,.08,2.35,14.35,14.35,0,0,1-.93,3.16c-.22.22-.56.51-1,.89a1.59,1.59,0,0,0-.68,1.22A7,7,0,0,1,87.54,123c-1.18,1.08-2.06,1.84-2.62,2.27a21.57,21.57,0,0,0-1.86,1.62,17.28,17.28,0,0,1-2.2,1.78c-.23.11-.31.19-.26.24s-.08.19-.42.41a.68.68,0,0,0-.68.4,1,1,0,0,1-.67.57,1.93,1.93,0,0,0-1.27.49c-.4.32-.82.65-1.27,1a.71.71,0,0,1-.51.16,1,1,0,0,0-.68.33c0,.43-.11.65-.33.65a1.49,1.49,0,0,1-1,.24,2.22,2.22,0,0,0-1,.08,4.55,4.55,0,0,0-.5.65c-.23.32-.46.48-.68.48a1.3,1.3,0,0,1-.93.25,1.94,1.94,0,0,0-1.1.24,1.19,1.19,0,0,0-.17.41c0,.05-.11.08-.34.08a2.77,2.77,0,0,1-1,.65l-3.38,1.62q-1.7.81-3.72,1.62c-.23.22-.4.32-.51.32a1.35,1.35,0,0,0-.51.17,3.74,3.74,0,0,1-1.52.64l-2,.65c-1,.33-1.83.6-2.62.81a.35.35,0,0,0-.09.41c.06.16,0,.24-.25.24h-.68a1.94,1.94,0,0,1-.84.16,7.65,7.65,0,0,0-1.36.17,4.48,4.48,0,0,1-2,.65,7.5,7.5,0,0,1-1.86.48,20.07,20.07,0,0,1-4.15.81,12.85,12.85,0,0,1-4.65-.16,5.79,5.79,0,0,1-2.79-1.7,13,13,0,0,0-2.63-2.19c.23-.22.17-.41-.17-.57s-.51-.3-.51-.4.14-.27.43-.49.36-.43.25-.65a10.2,10.2,0,0,0-1.35-1q-1-.64-1.86-1.14c-.23,0-.32-.08-.26-.24s0-.24-.25-.24c-.57,0-.79-.27-.68-.81a1.31,1.31,0,0,0-.34-1.3,3.05,3.05,0,0,1-.76-.57,4,4,0,0,1-.76-1.05,4.64,4.64,0,0,1,.76-1.3,4.74,4.74,0,0,0,.76-1.3c1.13-.21,1.89-.08,2.29.41a2.12,2.12,0,0,0,1.77.73q4.06-1,8-2.11a68.11,68.11,0,0,0,7.87-2.76c.34-.21.65-.4.94-.56a3.85,3.85,0,0,1,1.1-.41,2,2,0,0,1,1.18-.24,2.21,2.21,0,0,0,1.35-.41l.6-.56.59-.57h.85l1.52-.33a1.65,1.65,0,0,1,1-.65,1.49,1.49,0,0,0,.85-.4,6.18,6.18,0,0,1,1.19-.73,6.31,6.31,0,0,1,1.52-.49,9.15,9.15,0,0,0,1.69-.48,4.41,4.41,0,0,0,.85-1.14,3.18,3.18,0,0,1,.84-.16,1.54,1.54,0,0,0,.68-.16,6.13,6.13,0,0,1,1.44-.65,7.62,7.62,0,0,0,1.27-.49,2.57,2.57,0,0,0,.42-.65q.25-.48.42-.48a1.67,1.67,0,0,1,.85-.33,1,1,0,0,0,.68-.32,1.7,1.7,0,0,0,.59-.49q.26-.31.42-.48a1.08,1.08,0,0,1,.77-.33,4.9,4.9,0,0,0,1.1-.16,1.88,1.88,0,0,0,.33-.49,2.6,2.6,0,0,1,.51-.64l1.61-.81a3.25,3.25,0,0,0,1.44-1.79,1.74,1.74,0,0,0-1.69-.65,11.71,11.71,0,0,1-1.87.16c-1.69,0-3.52,0-5.5.09s-4,0-6-.09a3,3,0,0,1-1.1-.24,9.29,9.29,0,0,0-1.26-.4,32.27,32.27,0,0,0-6.1-.08,32.3,32.3,0,0,1-5.08.08,43.56,43.56,0,0,1-5.67-.49c-2.31-.32-4.2-.65-5.67-1-.79-.22-1.43-.38-1.94-.49a10.42,10.42,0,0,1-1.61-.49c-.11-.21-.14-.37-.08-.48s0-.22-.26-.33A7.3,7.3,0,0,1,29.57,105c-.11,0-.11,0,0-.16s0-.17-.33-.17a2,2,0,0,1-1.27-.81,10,10,0,0,0-1.44-1.29l-2.2-2.11a16.58,16.58,0,0,1-2.2-2.6,4.42,4.42,0,0,1-.51-.89,4.7,4.7,0,0,0-.51-.89,5,5,0,0,0-1.78-1,7.1,7.1,0,0,1-1.94-1.06,6.91,6.91,0,0,1-.85-1.46,3.51,3.51,0,0,0-.84-.56,1.43,1.43,0,0,1-.68-.57v-1a1.93,1.93,0,0,0-.68-.33c-.34-.1-.51-.21-.51-.32a.71.71,0,0,1,.09-.73.52.52,0,0,0-.09-.73.24.24,0,0,0-.17-.24c-.11-.06-.16-.19-.16-.41a.36.36,0,0,1-.09-.41,1.6,1.6,0,0,0,.09-.56c-.12-.43-.23-.81-.34-1.14A5.51,5.51,0,0,1,13,83.87q-.16-1.12-.51-3a15.22,15.22,0,0,1-.17-4,13.26,13.26,0,0,0,.59-1.78q.26-1,.6-2,.16-.81.33-1.86a7.81,7.81,0,0,1,.51-1.87.42.42,0,0,1,.42-.08c.17.06.26,0,.26-.24A1.25,1.25,0,0,1,15.53,68a1.77,1.77,0,0,1,.5-.57,4,4,0,0,0,.51-.4,2.83,2.83,0,0,0,.17-.89,1,1,0,0,1,.34-.73,2.38,2.38,0,0,1,.85-1.14,7.49,7.49,0,0,1,1-1.62A11.13,11.13,0,0,0,20.27,61a19.88,19.88,0,0,1,1.52-1.95,1.46,1.46,0,0,1,.59-.56,3.6,3.6,0,0,0,.76-.57.87.87,0,0,0,.26-.81.83.83,0,0,1,.25-.81,14.22,14.22,0,0,1,2-2.19q1.18-1,2.37-2.19a4.82,4.82,0,0,0,1.1-1,4.08,4.08,0,0,1,1.27-1.06,14.51,14.51,0,0,1,1.27-1,4.88,4.88,0,0,0,1.1-1.06c.56-.54,1.13-1.05,1.69-1.54s1.19-1.05,1.86-1.7a27,27,0,0,1,2.46-1.7c1-.59,1.89-1.22,2.79-1.86a3.46,3.46,0,0,1,1.1-.73A3.61,3.61,0,0,0,44,39.12a1.62,1.62,0,0,0,.59-.49,1.72,1.72,0,0,1,.6-.48,1.25,1.25,0,0,1,.5-.16q.16,0,.51-.33a.45.45,0,0,0,.17-.24c0-.05.11-.19.34-.41a1.84,1.84,0,0,1,.76-.16,1.73,1.73,0,0,0,.76-.16,3.41,3.41,0,0,0,.43-.57c.16-.27.3-.51.42-.73a7.25,7.25,0,0,0,.93-.56,2.47,2.47,0,0,1,1.44-.41.51.51,0,0,0,.34-.16c.22-.22.39-.33.5-.33a5.13,5.13,0,0,0,.6-.65.74.74,0,0,1,.59-.32,3.89,3.89,0,0,1,1.44-.65,10.66,10.66,0,0,0,1.61-.48.79.79,0,0,0,.16-.57c0-.27.06-.41.17-.41a.68.68,0,0,1,.51-.08.71.71,0,0,0,.34.08,1.78,1.78,0,0,0,.68-.65q.33-.48.51-.48a10.65,10.65,0,0,1,1.6-.49,10.66,10.66,0,0,0,1.61-.48.57.57,0,0,0,.17-.41c0-.16.11-.24.34-.24a.85.85,0,0,0,.42-.17,1.16,1.16,0,0,1,.59-.16,3.88,3.88,0,0,1,1.53-.65A4.32,4.32,0,0,1,66,26a1.67,1.67,0,0,1,.85-.33,1.57,1.57,0,0,0,.68-.16c1-.54,2-1,3-1.46s2.15-.86,3.39-1.29a20.76,20.76,0,0,1,2.37-1.14,8.16,8.16,0,0,0,1.44-.4c.39-.17.93-.35,1.61-.57a2.72,2.72,0,0,1,.84-.16,4,4,0,0,0,1.19-.33,20.1,20.1,0,0,1,3.55-1.21c1.47-.38,2.82-.68,4.06-.9a.86.86,0,0,1,.59-.08A1.28,1.28,0,0,0,90,18a9.24,9.24,0,0,1,1-.24,7.43,7.43,0,0,0,1.36-.4q3.21-.33,8.12-.57a47.05,47.05,0,0,1,8.46.24c.45,0,.94,0,1.44.08s1,.14,1.61.25a28.56,28.56,0,0,1,2.79.81l3,1a6.16,6.16,0,0,1,1.52.49,6.61,6.61,0,0,0,1.52.48,6.54,6.54,0,0,0,1.36.49,3.8,3.8,0,0,1,1.35.65c.22,0,.31.05.25.16s.09.16.43.16A1.52,1.52,0,0,1,125,22c.34.27.62.51.85.73a17.43,17.43,0,0,1,4.32,4.37A61.79,61.79,0,0,1,133.83,33a4.35,4.35,0,0,1,1,1v1h.51c.22.1.25.32.08.64s-.2.49-.08.49H136v1a4.08,4.08,0,0,1,.85,1.22c.23.49.45,1,.68,1.54a.71.71,0,0,1,.08.57,1.64,1.64,0,0,0-.08.57h.68a1.25,1.25,0,0,1-.17.48.31.31,0,0,0,.17.49,5.05,5.05,0,0,1,.59,1.7,13.06,13.06,0,0,1,.25,2.68c0,1,0,1.92-.08,2.83a8.81,8.81,0,0,1-.43,2.35c0,.22,0,.3-.17.25s-.16,0-.16.24a4.6,4.6,0,0,1-.26,1.14,3,3,0,0,1-.42,1,2.73,2.73,0,0,0-.68.89,9.2,9.2,0,0,1-.85,1.38c-.67,1-1.52,2.08-2.53,3.32a19.78,19.78,0,0,0-2.54,4,2,2,0,0,1-1.27.57,2.16,2.16,0,0,0-1.27.57,3.54,3.54,0,0,0-1.27,1.13A3.65,3.65,0,0,1,125.88,67a2.63,2.63,0,0,0-.68.49c-.22.21-.39.38-.51.48l-1.1.73a8.63,8.63,0,0,1-1.26.73,3,3,0,0,1-1.44.57,4,4,0,0,0-1.61.57,2.1,2.1,0,0,0-.68.56c-.23.27-.39.41-.51.41a12.3,12.3,0,0,1-4.06.65,5,5,0,0,0-1.94,1,3,3,0,0,1-2.29.49c0-.43-.25-.6-.76-.49a.9.9,0,0,1-1.1-.49q-.51-1.46.42-2.1a5.11,5.11,0,0,0,1.44-1.46.52.52,0,0,0,.17-.65,1.28,1.28,0,0,1-.17-.49c.68-.54,1.5-1.24,2.45-2.11s1.89-1.72,2.8-2.59a11.71,11.71,0,0,1,1.44-1.46,9.07,9.07,0,0,0,1.27-1.3,1.57,1.57,0,0,0,.16-.73,1.63,1.63,0,0,1,.17-.73.76.76,0,0,1,.51-.4,3.68,3.68,0,0,0,.68-.24,2.89,2.89,0,0,0,.42-1.3,4,4,0,0,1,.43-1.46,1.59,1.59,0,0,1,.5-.57,4,4,0,0,0,.51-.4.88.88,0,0,0,.34-.57,1.21,1.21,0,0,1,.17-.57c.68-.86,1.38-1.86,2.11-3a33.59,33.59,0,0,0,2.12-3.81,34,34,0,0,0,1.61-4.29,18.87,18.87,0,0,0,.42-5.76,4.74,4.74,0,0,0-2.37-1.86,20.19,20.19,0,0,0-3.21-.9,30.16,30.16,0,0,0-3.81-.48c-1.53-.11-3.13-.17-4.83-.17s-3.35.06-5,.17-3.08.27-4.32.48a1.9,1.9,0,0,0-.84.17c-.23.1-.51.21-.85.32h-.84c-.57.43-.85.54-.85.32s-.23-.32-.68-.32a.45.45,0,0,1-.17.32.48.48,0,0,1-.34.17l-1.69.56a2,2,0,0,1-1.86-.08q0-.64.42-.81a2.79,2.79,0,0,1,.93-.16,3.29,3.29,0,0,0,1-.16c.34-.11.51-.43.51-1,0-.32-.09-.45-.26-.4a2.19,2.19,0,0,0-.59.32.67.67,0,0,1-.59.17c-.17-.06-.2-.41-.09-1.06.91-.21,1.5-.16,1.78.16a3.93,3.93,0,0,0,.93.81q.34-.15.09-.48a1.65,1.65,0,0,0-.6-.49c.12-.65.79-1,2-1,.11-.54.3-.65.59-.33a.83.83,0,0,0,.93.33,3.47,3.47,0,0,0,.25-.65c.06-.22.31-.38.76-.49q-.16,0,.09.33a.72.72,0,0,0,.59.32c.23-.1.51-.21.85-.32a1.58,1.58,0,0,0,1-.81,2.51,2.51,0,0,0-1.6-.33,11.08,11.08,0,0,0-2.63.33c0-.54.17-.87.51-1a4.15,4.15,0,0,1,1.27-.17H106q.77,0,.93-.48a2.43,2.43,0,0,0-1.77-2,7.38,7.38,0,0,0-3.3-.08,2.85,2.85,0,0,0-1.7.89c-.45.49-.79.41-1-.24-.23,0-.31.08-.26.24s.14.24.26.24c0,.44-.09.68-.26.73a1,1,0,0,1-.59,0,1.56,1.56,0,0,0-.68,0c-.22.06-.39.36-.5.9-.57-.11-.77-.52-.6-1.22s-.14-1-.93-.89c-.56,0-.82.27-.76.81s.54.76,1.44.65a1.51,1.51,0,0,1-1.86,1.13,3.27,3.27,0,0,0-2.37.49,1.15,1.15,0,0,1,.51-.81,1.17,1.17,0,0,0,.5-.81,3.07,3.07,0,0,0-2.53.65c-.34.1-.49.21-.43.32a1.41,1.41,0,0,0,.43.4,3.54,3.54,0,0,1,.59.57.82.82,0,0,1,.08.81c-.9-.21-1.52-.13-1.86.25s-.9.46-1.69.24c-1,.22-1.36.59-1,1.13a1.05,1.05,0,0,1-.17,1.46c-.79.22-1.55.46-2.28.73a20.71,20.71,0,0,1-2.46.73c-.11,0-.14.11-.08.33s0,.32-.25.32a2.51,2.51,0,0,0-1.53.73c-.34.38-1,.46-2,.24-.11-.86.23-1.24,1-1.13a2.59,2.59,0,0,0,2-.49l.17-.16.34-.32a3.36,3.36,0,0,1,.76-.57,3.07,3.07,0,0,0,.93-1.06,14.34,14.34,0,0,0-3.39,1.87,5.61,5.61,0,0,1-3.89.89.66.66,0,0,0-.68.49q-.16.48-.33.48c-.23.22-.34.22-.34,0s-.06-.32-.17-.32c-.34-.11-.74.14-1.19.73a15.05,15.05,0,0,1-1.52,1.7A2.67,2.67,0,0,0,73.07,39a8.7,8.7,0,0,0,1-.57,7.09,7.09,0,0,1,1.1-.56,3.61,3.61,0,0,1,1.44-.25,1.69,1.69,0,0,1-1.86,1.14c.33.32.44.56.33.73a3,3,0,0,0-.33.73c.11.43.28.51.5.24s.4-.13.51.41a4.19,4.19,0,0,1,.59-.49,1.86,1.86,0,0,1,.93-.16c.12,0,.17-.22.17-.65a1.28,1.28,0,0,1-.17-.49,1,1,0,0,1,.6-.32c.17,0,.25-.22.25-.65.56,0,1.13,0,1.69.08s.68-.35.34-1.22a11.32,11.32,0,0,1,1.19,1,2.06,2.06,0,0,1,.33,1.78A3.39,3.39,0,0,1,82.89,39a1.77,1.77,0,0,0,1-.89c0-.33-.05-.46-.16-.41a4,4,0,0,0-.51.33,2.35,2.35,0,0,1-.59.32c-.17.06-.26-.19-.26-.73.68-.43.79-.54.34-.32a3,3,0,0,1-1.35.32c0-.54.33-.86,1-1a1.15,1.15,0,0,0,1-1.3,2.93,2.93,0,0,1,.84,1.7,1.1,1.1,0,0,0,1.19,1.06A1,1,0,0,0,84.92,37a.5.5,0,0,1,.59-.24,4.08,4.08,0,0,0,.85.08,1.29,1.29,0,0,0,.76-.24,2,2,0,0,0,.51-1.22c.9-.1,1.69-.21,2.37-.32a14.39,14.39,0,0,0,2.37-.65.41.41,0,0,1,.17-.32c.22-.22.39-.27.5-.17.57.65,1.13.63,1.7-.08A2.49,2.49,0,0,1,97.11,33ZM50.56,51.44a3,3,0,0,0-.08-.65.41.41,0,0,0-.43-.32.62.62,0,0,1-.17.49.65.65,0,0,0-.16.48c.56,0,.84.17.84.49a10.69,10.69,0,0,1-.76,1.14c-.4.54-.31.54.25,0a10.3,10.3,0,0,1,2.88-1.46,4.32,4.32,0,0,0,2.37-1.79c-.79.33-1.5.65-2.11,1A7.09,7.09,0,0,1,50.56,51.44Zm-.51-1.62c-.11-.54.14-.81.77-.81s.93-.21.93-.65a2,2,0,0,0-1.7.57C49.49,49.42,49.49,49.72,50.05,49.82Zm1.36.65A1.68,1.68,0,0,0,53.1,50a5.56,5.56,0,0,1,1.19-1.13C52.7,48.85,51.75,49.39,51.41,50.47Zm5.08-4.21c.56-.54.93-.65,1.1-.33a.58.58,0,0,0,.76.33,1.13,1.13,0,0,1,.17-.49l.34-.65a1.59,1.59,0,0,1,.84-.41,1.31,1.31,0,0,0,.68-.24c.34-.21.53-.29.59-.24s.14,0,.25-.24a.68.68,0,0,1,.6-.09,3.63,3.63,0,0,0,.76.09A5.23,5.23,0,0,0,63,43.5a1.7,1.7,0,0,1,.59-.49,6.43,6.43,0,0,1,1.53-1.13,3.83,3.83,0,0,1,1.69-.33,5,5,0,0,0,1.86-.32c.11,0,.4-.22.85-.65s.68-.32.68.33a1.12,1.12,0,0,1-.94.81,7.77,7.77,0,0,1-1.52.16,3.54,3.54,0,0,0-1.35.24c-.4.16-.54.57-.43,1.22a1.35,1.35,0,0,0,1-.08,6.9,6.9,0,0,0,.85-.49,1.15,1.15,0,0,1,.67-.24q.34,0,.51.48a1.46,1.46,0,0,1-1,.41c-.22-.05-.5.13-.84.57q.16-.16.42.48c.17.44.14.76-.08,1,0,.22-.15.33-.43.33a4.78,4.78,0,0,0-.84.08,2.22,2.22,0,0,0-.68.24c-.17.11-.14.33.09.65s.25.27.42.16.36-.24.59-.4a4.91,4.91,0,0,1,.68-.41.57.57,0,0,1,.67.17c.12.1.17.35.17.73s.17.51.51.4v-2a1.87,1.87,0,0,1,.85-.24A10.62,10.62,0,0,0,70.87,45a2.87,2.87,0,0,0,1.1-.49,1.34,1.34,0,0,0,.43-1.13,1.44,1.44,0,0,0-1.53.56c-.34.49-.56.3-.67-.56A2.76,2.76,0,0,0,71.8,43a1.29,1.29,0,0,0,.51-.65,2.35,2.35,0,0,0,.09-.64.52.52,0,0,1,.33-.49.86.86,0,0,0,.43.65.52.52,0,0,0,.76,0c0-.43-.09-.7-.25-.81a5.39,5.39,0,0,0-.6-.33c-.22-.1-.34-.21-.34-.32s.17-.33.51-.65a1.35,1.35,0,0,0-.93,0l-.76.32a1.41,1.41,0,0,1-.59.17c-.17,0-.32-.17-.43-.49.57-.11.79-.35.68-.73a1.73,1.73,0,0,1,.34-1.38A7.26,7.26,0,0,1,72.82,37c.73-.32.7-.64-.09-1a4.68,4.68,0,0,1-2.53,1.38,8.51,8.51,0,0,0-2.21.73,5.41,5.41,0,0,1-1.6.89,3.24,3.24,0,0,0-1.27.73,2.76,2.76,0,0,0-.17,1c0,.33-.17.49-.51.49-.68-.11-1,.06-1,.49s-.28.64-.84.64c0-.86-.45-1.24-1.36-1.13,0,.65-.16,1-.5,1.13a3.57,3.57,0,0,1-1.1.17,7.93,7.93,0,0,0-1.19.08.88.88,0,0,0-.76.73.83.83,0,0,0,.76.24c.28,0,.43.08.43.41a.62.62,0,0,1-.43.64,2.47,2.47,0,0,0-.76.49c-.57.32-1,.22-1.27-.32s-.48-.43-.59.32C56.26,45.12,56.49,45.5,56.49,46.26Zm6.09,1.13c-.23-.22-.62-.65-1.19-1.3s-.9-.59-1,.17a1,1,0,0,1,.68.32,4.19,4.19,0,0,1,.59.73,1.1,1.1,0,0,0,.51.49C62.32,47.85,62.46,47.71,62.58,47.39Zm1-2.92q-.33-.31-.93,0c-.39.22-.59.44-.59.65q-.68.81.51.24C63.37,45,63.71,44.69,63.59,44.47ZM68.67,37V36H67.49v1Zm1.53-1a1.48,1.48,0,0,0,1.69-.32,7.93,7.93,0,0,0,.84-1.3,7.63,7.63,0,0,0-1.6.49A1.47,1.47,0,0,0,70.2,36ZM74.26,33a1.45,1.45,0,0,0,1.52-1.13,6.83,6.83,0,0,0-1.18.08C74.26,32,74.14,32.31,74.26,33Zm6.6-1.13q.17.64,0,.81a.85.85,0,0,1-.59.16h-.68c-.17,0-.25.16-.25.48.22.33.44.47.67.41a1.91,1.91,0,0,0,.68-.32,3.94,3.94,0,0,1,.93-.49,2,2,0,0,1,1.44.08c-.23-.54-.2-.92.08-1.13s.26-.38-.08-.49a.85.85,0,0,1-1,.49A2.14,2.14,0,0,0,80.86,31.83Zm4.06,2.1V33H83.4v1Zm2-2.59c.11,0,.28-.16.51-.49A4.29,4.29,0,0,1,88,30.2c.67-.21,1-.54,1-1-.34.11-.9.24-1.69.41a13.46,13.46,0,0,0-2,.56,2.28,2.28,0,0,0-1.19.9c-.22.38.06.78.85,1.21-.23-.86,0-1.21.59-1.05A2.71,2.71,0,0,0,87,31.34Zm1,3.08a1.91,1.91,0,0,1-1.86,1C86.11,34.53,86.72,34.2,88,34.42ZM86.44,28.1a1.59,1.59,0,0,0,1.61.16,2.07,2.07,0,0,0,1.44-1.14H87.54C86.81,27.12,86.44,27.45,86.44,28.1ZM90,31.83c-.12.75-.79,1.13-2,1.13a1,1,0,0,1,.59-1.05A2.43,2.43,0,0,1,90,31.83Zm2,0c-.34.43-.65.62-.93.56a.57.57,0,0,1-.51-.4.4.4,0,0,1,.17-.49C90.93,31.39,91.35,31.5,92,31.83Zm10.15-2.6c0,.43-.17.57-.5.41a1,1,0,0,0-1,.08q-.16,0-.42.48a2.29,2.29,0,0,1-.43.65,6.45,6.45,0,0,1-1.52.16,3.43,3.43,0,0,0-1.52.33,6.35,6.35,0,0,1-1.36.24,7,7,0,0,0-1.35.25,1.87,1.87,0,0,0-.51.81c-.11.32-.51.43-1.18.32A8.73,8.73,0,0,1,96.6,30,18.26,18.26,0,0,1,102.18,29.23Zm2.88-2.59q.16.81-.42.81a3,3,0,0,0-1.27.32,1,1,0,0,1,.17-.57,1,1,0,0,0,.17-.56Z"/><path class="cls-1" d="M152.62,27.29c-.57,3-1.18,5.94-1.86,8.75a41.4,41.4,0,0,1-2.88,8.11,1.17,1.17,0,0,0,.09.4.38.38,0,0,1-.09.41h-.51a1.91,1.91,0,0,0,.09.48q.07.33-.09.33a2.07,2.07,0,0,0-.5,1,1.74,1.74,0,0,1-.17.81.62.62,0,0,0-.17.49.45.45,0,0,1-.17.32,4,4,0,0,0-1.1,1.71c-.4.92-.76,1.75-1.1,2.51-.68,1.51-1.47,3.19-2.37,5s-1.81,3.52-2.71,5c-.11.43-.23.81-.34,1.14a7.94,7.94,0,0,1-.51,1.13,1.08,1.08,0,0,1-.5.49,2.16,2.16,0,0,0-.51.32,2.84,2.84,0,0,0,.08.57.6.6,0,0,1-.08.57,4.06,4.06,0,0,0-.76,1.37,7,7,0,0,1-1.1,1.87c-.12.11-.23.14-.34.08s-.17.08-.17.41v.48a2,2,0,0,1-.51.33c-.23.11-.34.21-.34.32a.47.47,0,0,0-.08.49,2.57,2.57,0,0,1,.08.48h-.51c-.11.11-.11.28,0,.49s.12.38,0,.49h-.33q-.18.16,0,.48t0,.33h-.51a3.34,3.34,0,0,0-.51,1.13,5.65,5.65,0,0,1-.51,1.3c0,.11-.06.14-.17.08s-.17,0-.17.24a2.84,2.84,0,0,1-.67,1.22q-.51.57-1,1a4.14,4.14,0,0,0-.51.81,1.2,1.2,0,0,1-.42.49,3.69,3.69,0,0,0-.59.49,2.34,2.34,0,0,0,.08.48.47.47,0,0,1-.08.49.88.88,0,0,0-.34.57.84.84,0,0,1-.34.56,1.11,1.11,0,0,1-.51.25,1,1,0,0,0-.5.24q-.18.16,0,.57t0,.57a4.15,4.15,0,0,0-1,1,40.38,40.38,0,0,1-2.79,3.32,17.9,17.9,0,0,0-2.46,3.33,2.55,2.55,0,0,1-1.35.64,1.76,1.76,0,0,0-1.18.65q-1.36,3.73-2.54,7.71t-2.54,7.7c.34.54.73.46,1.18-.25a4.5,4.5,0,0,1,1.19-1.37,5.76,5.76,0,0,0,2.11-1.38l2.46-2.35a1.64,1.64,0,0,0,.67-.73,2,2,0,0,1,.51-.73,1,1,0,0,1,.68-.08.74.74,0,0,0,.68-.25,11.62,11.62,0,0,0,1-1.13l1-1.3a1.45,1.45,0,0,1,.5.16.34.34,0,0,0,.51-.16,2.05,2.05,0,0,1,.09-.49c0-.21.14-.32.25-.32a.8.8,0,0,1,.76-.24.83.83,0,0,0,.76-.25,1.39,1.39,0,0,0,.43-.65,1.31,1.31,0,0,1,.42-.64.72.72,0,0,1,.68-.25.68.68,0,0,0,.67-.24c.12,0,.2-.13.26-.41s.14-.4.25-.4a17.94,17.94,0,0,0,2-1.14,6.73,6.73,0,0,0,1-.64A2.27,2.27,0,0,1,134,93.6a6.06,6.06,0,0,1,2.29.65,2.19,2.19,0,0,1,1.44,2.11,15.62,15.62,0,0,0,1.6.64,3.11,3.11,0,0,1,1.44,1q.16.17,0,.48c-.11.22-.11.38,0,.49s.34.35.34.41a1.61,1.61,0,0,0,.17.4,3.63,3.63,0,0,0,.51,1,4.6,4.6,0,0,1,.51,1,2.12,2.12,0,0,1-.17,1.05,2.79,2.79,0,0,0-.34.73,34,34,0,0,0-1.27,4.3,41.7,41.7,0,0,1-1.44,4.78,1.89,1.89,0,0,1-.34.89,4.31,4.31,0,0,0-.51,1.38,6.9,6.9,0,0,0-.17,1.3,5.11,5.11,0,0,1-.33,1.46.15.15,0,0,1-.17.16c-.12,0-.23.11-.34.32v1.14a3.81,3.81,0,0,1-.34,1.13,1,1,0,0,0-.25.89,4.43,4.43,0,0,1-.26,1.71c0,.1-.08.16-.25.16s-.26.11-.26.32a22.13,22.13,0,0,1-.59,3.08,11.3,11.3,0,0,0-.42,2.76q.33.48.51.24a.57.57,0,0,1,.5-.24q5.76-5.67,11.18-11.59t11.34-11.43a6.18,6.18,0,0,0,1.35-2c.34-.76,1.18-1,2.54-.81a4.89,4.89,0,0,1,.93.81,7.29,7.29,0,0,1,.59,1,1.28,1.28,0,0,1,.17.49c0,.11.11.11.34,0,.22.76.11,1.24-.34,1.46a3.31,3.31,0,0,0-1.18,1c-.57.65-1.05,1.25-1.44,1.78a17.19,17.19,0,0,1-2,2.11,3.45,3.45,0,0,1-.93.89,8.21,8.21,0,0,0-.93.73,10.63,10.63,0,0,1-1,1.14,10.44,10.44,0,0,0-1,1.13,4.13,4.13,0,0,0-.68,1.14,2.5,2.5,0,0,1-.68,1,10.22,10.22,0,0,1-1,.89,4.24,4.24,0,0,0-.85.9c-.34.32-.67.62-1,.89a4.19,4.19,0,0,0-.85.89,4.36,4.36,0,0,0-.85,1.13c-.22.44-.45.87-.67,1.3-.34.22-.68.46-1,.73s-.68.57-1,.89c-.57.76-1.1,1.46-1.61,2.11s-1,1.3-1.61,1.95a21.76,21.76,0,0,1-1.86,1.86c-.68.6-1.36,1.22-2,1.86a20.5,20.5,0,0,1-1.86,1.87,2.79,2.79,0,0,0-1,2.19,18,18,0,0,0-6.6-2.11,4.4,4.4,0,0,0-.68-1.38c-.34-.48-.68-1-1-1.54a.74.74,0,0,1-.26-.73,3.88,3.88,0,0,0-.25-1.54,19.53,19.53,0,0,1-.17-5.83c.22-2.17.56-4.35,1-6.57s1-4.32,1.53-6.32a43,43,0,0,0,1.18-5.27c-.56-.54-1.1-.46-1.6.24a12.79,12.79,0,0,1-1.44,1.7,2,2,0,0,1-.51-.08c-.23,0-.34,0-.34.08a15.64,15.64,0,0,1-2.37,2.11,11,11,0,0,0-1.44,1.3,7.81,7.81,0,0,1-1.61,1.29q-1.86,2-4.14,4a53,53,0,0,0-4.32,4.29c-.23.22-.68.63-1.35,1.22a2.41,2.41,0,0,0-1,1.7v.33l-.68.64a2.77,2.77,0,0,0-.5.65c-.23.22-.34.38-.34.49a1.2,1.2,0,0,1-.17.48,8.17,8.17,0,0,0-1.44,3.33,8.85,8.85,0,0,0-.25,4,1.59,1.59,0,0,0-1.19,1.3,4.81,4.81,0,0,1-.68,1.78c-.33.11-.5.06-.5-.16v-.65a2.48,2.48,0,0,0-.09-.65c-.06-.21-.25-.27-.59-.16a1.51,1.51,0,0,0-.76.16,1.86,1.86,0,0,1-.93.16,3.41,3.41,0,0,0-.68-.89c-.11-.05-.06-.51.17-1.38a.78.78,0,0,0-.93-.32A.9.9,0,0,1,101,133l-.85-.81a1.76,1.76,0,0,1-.68-1.14c0-.21-.33-.38-1-.48a1.7,1.7,0,0,1-1.35-.81c-.23-.22-.23-.54,0-1s.22-.7,0-.81a1.66,1.66,0,0,1-.51-1.7c.11-.81.28-1.76.51-2.84a26.4,26.4,0,0,1,1-5.83,3.12,3.12,0,0,0-.17-.9c-.11-.37,0-.62.17-.73h.34a6.06,6.06,0,0,0,.25-2.27,5.2,5.2,0,0,1,.26-2.1h.17c.22,0,.33-.17.33-.49a5.48,5.48,0,0,0-.08-.73c-.06-.38,0-.57.08-.57a.83.83,0,0,0,.26-.81.86.86,0,0,1,.25-.81h.51a4.46,4.46,0,0,0-.17-1,1,1,0,0,1,.17-1,3.91,3.91,0,0,0,.85-1.79,31.67,31.67,0,0,0,1.27-4.78,36.11,36.11,0,0,1,1.27-5,.14.14,0,0,1,.16-.16c.12,0,.17-.1.17-.32a4.43,4.43,0,0,0,.17-1,3.52,3.52,0,0,1,.34-1.13,1.6,1.6,0,0,0,.17-.73,4.49,4.49,0,0,1,.17-1c.11-.22.36-.76.76-1.62a24,24,0,0,0,.93-2.28,8,8,0,0,0,.43-2,5.9,5.9,0,0,1,.42-1.87c.34,0,.51-.1.51-.32v-.49c.11-.21.25-.51.42-.89s.36-.83.59-1.38a11.61,11.61,0,0,0,.59-1.78q.26-1,.6-1.95c0-.1,0-.16.08-.16s.09-.1.09-.32a9.61,9.61,0,0,0,.42-1.06c.17-.48.36-1,.59-1.54a3.34,3.34,0,0,0,.51-1.13,10.32,10.32,0,0,1,.51-1.46c.22-.43.53-1,.93-1.87a14,14,0,0,0,.93-2.51,1.15,1.15,0,0,0,.25-.89,1.12,1.12,0,0,1,.26-.89c0-.11.08-.14.25-.08s.25,0,.25-.25v-.48a4.51,4.51,0,0,0,.34-.89,12.53,12.53,0,0,1,.51-1.38,2.32,2.32,0,0,1,.34-1,3.71,3.71,0,0,0,.68-1.22,9.26,9.26,0,0,1,.84-1.7c.23-.43.51-1.06.85-1.87s.73-1.64,1.18-2.51a4.14,4.14,0,0,0,.51-.81,8.39,8.39,0,0,0,.76-1.14A3.28,3.28,0,0,0,122,49a4.69,4.69,0,0,1,1-1.62c.11-.22.4-.67.85-1.38a3.68,3.68,0,0,0,.67-1.38,5.39,5.39,0,0,1,.77-1.62,20.33,20.33,0,0,0,1.1-2.1,4.39,4.39,0,0,0,.5-.57,3.9,3.9,0,0,1,.51-.57.45.45,0,0,1,.17-.32.15.15,0,0,1,.17-.17,1.05,1.05,0,0,0,.17-1,1.41,1.41,0,0,1,.17-1.13.83.83,0,0,1,.59-.17c.28,0,.42,0,.42-.16a7.63,7.63,0,0,0,.43-1.21,3.36,3.36,0,0,1,.76-1.22,1.38,1.38,0,0,1,1-.32,4.41,4.41,0,0,0,.43-1.06,6.5,6.5,0,0,1,.42-1.21A15.39,15.39,0,0,0,133.41,30c.39-.65.87-1.4,1.44-2.27.11-.21.22-.29.34-.24s.17,0,.17-.24c0-.44.36-.92,1.1-1.46a10.15,10.15,0,0,0,1.77-1.62c.11-.11.11-.27,0-.49s-.11-.38,0-.49c.45-.32,1-.7,1.7-1.13a9.09,9.09,0,0,0,1.86-1.62c1.58-.22,2.68,0,3.3.73l1.78,2c.45-.1.7-.32.76-.65s.48-.37,1.27-.16a13,13,0,0,0,1.94,2.35A8.15,8.15,0,0,1,152.62,27.29ZM126.39,49q0,.16-.51,0c-.34-.1-.51-.27-.51-.48a3.08,3.08,0,0,1,.59.08c.28,0,.43,0,.43-.08.22-.22.19-.63-.09-1.22s-.59-1-.93-1.05a8.87,8.87,0,0,0-.34,1.62c0,.21.28,0,.85-.49a.78.78,0,0,1-.51,1,2,2,0,0,1-.85.17,1,1,0,0,0-.33.72q0,.42.33-.24a1.42,1.42,0,0,0,.6.16c.17,0,.25.11.25.33a.26.26,0,0,0-.25.16c-.06.11,0,.22.25.32a.75.75,0,0,1,.51-.56A.8.8,0,0,0,126.39,49Zm11.67-1.13h-.33c-.12,0-.12.11,0,.32s.11.33,0,.33a1.27,1.27,0,0,1-.43.48,1.2,1.2,0,0,0-.42.49,5.43,5.43,0,0,0-.51,1.38,5.51,5.51,0,0,1-.51,1.37,4.41,4.41,0,0,1-.5.41,1.53,1.53,0,0,0-.51.57,12,12,0,0,1-.51,1.29c-.23.44-.42.79-.59,1.06a1.41,1.41,0,0,0-.26.73,4.84,4.84,0,0,1-.33,1,.45.45,0,0,0-.09.49,2.08,2.08,0,0,1,.09.48,1.15,1.15,0,0,1-.51.49,1.06,1.06,0,0,0-.51.49,2.49,2.49,0,0,0-.42,1.21,3.9,3.9,0,0,1-.43,1.38,46.11,46.11,0,0,0-3.21,6.4q-1.37,3.33-2.71,6.25a4.1,4.1,0,0,1-.68,1.13c-.33.44-.22.87.34,1.3q1.18-2.27,2.54-4.46t2.71-4.78a10.51,10.51,0,0,1,.85-1.62,2.82,2.82,0,0,0,.5-1.14.58.58,0,0,0,.09-.48,1,1,0,0,1-.09-.49,1.87,1.87,0,0,1,.51-.33,1,1,0,0,0,.51-.48.66.66,0,0,0,.25-.65.65.65,0,0,1,.26-.65,1.27,1.27,0,0,1,.42-.49,1.11,1.11,0,0,0,.42-.48,6,6,0,0,0,.43-1.38,3.7,3.7,0,0,1,.42-1.22h.51a.45.45,0,0,0,.08-.48,1.93,1.93,0,0,1-.08-.49,4.52,4.52,0,0,1,.5-.4,1.61,1.61,0,0,0,.51-.57,2.64,2.64,0,0,0,.43-1.22,3.81,3.81,0,0,1,.42-1.38c.11-.21.22-.29.34-.24s.17,0,.17-.24a.71.71,0,0,0,.08-.57,1.18,1.18,0,0,1-.08-.41,6.12,6.12,0,0,1,.5-.4,1.53,1.53,0,0,0,.51-.57,3.6,3.6,0,0,0,.42-1.3,3.79,3.79,0,0,1,.6-1.45h.34a.48.48,0,0,0,.33-.17,1.89,1.89,0,0,0-.08-.56.36.36,0,0,1,.08-.41.72.72,0,0,1,.34-.57,1.58,1.58,0,0,0,.51-.56c.22-.54.39-1,.51-1.3s.28-.76.51-1.3.5-1.13.84-1.78a3.79,3.79,0,0,0,.51-1.3l.59-1.13c.17-.33,0-.54-.59-.65-.9,1.4-1.78,2.86-2.62,4.37s-1.78,3.09-2.8,4.71Zm-6.77-8.6a2.77,2.77,0,0,0-.5.65,2.69,2.69,0,0,1-.51.65,1.85,1.85,0,0,0-.68.65,2.42,2.42,0,0,1-.51.65,13.47,13.47,0,0,0-.76,1.29c-.28.55,0,.71.76.49.45,0,.62-.11.51-.32a2.42,2.42,0,0,0-.51-.65A3.77,3.77,0,0,0,131,41.31a14.22,14.22,0,0,0,1.1-2,.71.71,0,0,1,.51.17,2.16,2.16,0,0,0,.51.32,3.9,3.9,0,0,1-.43-1.38,1.94,1.94,0,0,0-.59-1.21,5.77,5.77,0,0,0-.51,1.29A1.73,1.73,0,0,1,131.29,39.28Zm3.05-6.48c0,.22.09.32.25.32s.26-.1.26-.32a2.69,2.69,0,0,0-1.52-.41c-.8,0-.85.25-.17.89.11-.53.25-.64.42-.32S134,33.23,134.34,32.8Zm2-2.76c.34.65.4,1.11.17,1.38s0,.57.68.89c.45-.54.56-.81.34-.81s-.34-.32-.34-1a2.3,2.3,0,0,0,.76-1.06c.28-.59.2-.83-.25-.72a1.21,1.21,0,0,1-.51.81A7.53,7.53,0,0,0,136.37,30Z"/><path class="cls-1" d="M211,135.11a18.93,18.93,0,0,1-2.2,2.35,13.78,13.78,0,0,1-2.71,1.86,12.12,12.12,0,0,1-1.77,1,4,4,0,0,1-1.61.33,12.75,12.75,0,0,1-1.86-.16,25.09,25.09,0,0,1-2.71-.65c-.12,0-.17-.08-.17-.25s-.12-.24-.34-.24a6.22,6.22,0,0,1-4.23-1.46c-.23-.1-.31-.21-.26-.32s0-.16-.25-.16a.73.73,0,0,1-.59-.33,3.58,3.58,0,0,1-.42-.65l-.51-.65a1.28,1.28,0,0,1-.17-.64,1,1,0,0,0-.34-.65c0-.22-.17-.38-.51-.49s-.51-.27-.51-.49a.34.34,0,0,1-.08-.4,1.64,1.64,0,0,0,.08-.57,3,3,0,0,1-.25-.73c-.06-.27-.14-.78-.25-1.54a28.62,28.62,0,0,1-.34-4.62c0-1.67.08-3.38.25-5.11a46,46,0,0,1,.76-4.94,19,19,0,0,1,1.36-4.14c-.12-.32-.31-.4-.59-.24a.78.78,0,0,0-.43.73c-.34-.11-.48,0-.42.24s0,.47-.09.57-.28.11-.5,0-.4-.1-.51,0-.11.27,0,.49.11.38,0,.48c-.34.22-.65.44-.93.65a4.56,4.56,0,0,0-.93,1.14c-.23.22-.68.62-1.36,1.21a3.39,3.39,0,0,0-1.18,1.71c0,.54-.37,1-1.1,1.54s-1.38.94-2,1.37a5.8,5.8,0,0,1-1.18,1.14,7.12,7.12,0,0,0-1.36,1.3,5.37,5.37,0,0,0-.93,1.21A3,3,0,0,1,177,126q-.17.16-.51,0c-.22-.11-.39-.11-.5,0a1,1,0,0,0-.26.48c-.06.22-.14.33-.25.33a18.52,18.52,0,0,1-2.88,1.62,6.72,6.72,0,0,1-4.4.48,3.4,3.4,0,0,1-1.19-.73,5.1,5.1,0,0,0-1.69-.89,1.52,1.52,0,0,0-1.18-.56,11.64,11.64,0,0,1-1.53-.25,8.4,8.4,0,0,0-1.26-.48,4,4,0,0,1-1.11-.49,10.06,10.06,0,0,1-.59-1,7.89,7.89,0,0,0-.93-1.3,4.32,4.32,0,0,1-.76-1.38c-.28-.7-.53-1.32-.76-1.86a19,19,0,0,1-.51-7.78l1-3.57a1.62,1.62,0,0,0-.09-.57.77.77,0,0,1,.09-.57,1.11,1.11,0,0,1,.5-.48,1.06,1.06,0,0,0,.51-.49,1.13,1.13,0,0,0-.08-.4.36.36,0,0,1,.08-.41,1.43,1.43,0,0,1,.17-.65l.34-.81a2.27,2.27,0,0,0,.51-.65c.11-.21.28-.48.5-.81a5,5,0,0,1,.6-.49,1.11,1.11,0,0,0,.42-.48,7.09,7.09,0,0,0,.51-1.22,3.41,3.41,0,0,1,.51-1.05,3.91,3.91,0,0,1,.84-.89,4.85,4.85,0,0,0,1-1.22.93.93,0,0,0,.34-.65,1,1,0,0,1,.33-.65c.12-.21.26-.32.43-.32a.57.57,0,0,0,.42-.16A1,1,0,0,0,166,95a1.6,1.6,0,0,1,.17-.73,14.42,14.42,0,0,1,2.28-2c1.07-.81,2-1.48,2.8-2a2,2,0,0,0,.5-.81,1.07,1.07,0,0,1,.85-.64c.23,0,.59-.27,1.1-.82s.93-1,1.27-1.29a.83.83,0,0,1,.76-.25.8.8,0,0,0,.76-.24l.51-1a4.42,4.42,0,0,1,1.44-.41,4.17,4.17,0,0,0,1.44-.4,1.7,1.7,0,0,0,.59-.49,1.82,1.82,0,0,1,.59-.49q.16-.15.6,0t.42,0a2.21,2.21,0,0,1,1-.48,1.69,1.69,0,0,0,.68-.16l.68-.33c1-.21,2.34-.43,4-.65a13.25,13.25,0,0,1,5,.33,5.09,5.09,0,0,0,1.27.32,6.23,6.23,0,0,1,1.61.49c.11.11.14.22.08.32s0,.16.25.16a3.34,3.34,0,0,1,2.2,1.71,6,6,0,0,0,2.37,2.19,4.86,4.86,0,0,0,2.2-1.38l2-2.11a8.16,8.16,0,0,1,2.11-1.62,3,3,0,0,1,2.46-.08,2.6,2.6,0,0,0,.5-.08.5.5,0,0,1,.51.08v.32A14.5,14.5,0,0,1,213.63,84a5.11,5.11,0,0,1,1.78,2.6,4.24,4.24,0,0,1-.93,2.35A11.23,11.23,0,0,0,213,91.17a8,8,0,0,1-.51.81,4.07,4.07,0,0,0-.5,1,1,1,0,0,1-.26.49,1,1,0,0,0-.25.48l-1,.81a12.13,12.13,0,0,0-.5,1.46,6.74,6.74,0,0,1-.51,1.3c0,.22-.06.3-.17.24s-.23,0-.34.25a1.2,1.2,0,0,1-.17.48,1.47,1.47,0,0,0-.17.65l-.51,1.3a1.08,1.08,0,0,1-.5.49,1,1,0,0,0-.51.48.76.76,0,0,0-.26.73.73.73,0,0,1-.25.73l-2.37,5.84-.51.81a1,1,0,0,0-.34.65,2.66,2.66,0,0,1-.16.81c0,.22-.06.32-.17.32s-.17.06-.17.16a.73.73,0,0,0-.09.9,1,1,0,0,1,.09.89,1.58,1.58,0,0,1-.6.57c-.28.16-.42.29-.42.4a1.43,1.43,0,0,0,0,1q.16.66,0,.81a3.94,3.94,0,0,0-.68,1c-.22,1.19-.53,2.57-.93,4.13a45.29,45.29,0,0,0-.93,5,35.08,35.08,0,0,1-1.1,3.64,6.61,6.61,0,0,0-.08,4.3c.79.54,1.41.57,1.86.08a7.17,7.17,0,0,1,1.18-1.05,10,10,0,0,0,2.12-1.54c.62-.59,1.21-1.22,1.78-1.87l.17.33.5-.81a8,8,0,0,0,.51-.81,2.42,2.42,0,0,1,.51-.65c0-.22.06-.33.17-.33s.17,0,.17-.16a1,1,0,0,0,.34-.73,1,1,0,0,1,.34-.73,1.42,1.42,0,0,1,1-.32,6.53,6.53,0,0,0,.42-1.22,4.48,4.48,0,0,1,.6-1.21c.11-.11.19-.14.25-.09s.08,0,.08-.24a1.32,1.32,0,0,1,.6-.73.78.78,0,0,0,.42-.73,3.64,3.64,0,0,1,.93-1.86c.62-.81,1.1-1.49,1.44-2l.68-.81.34-.32c.11,0,.16-.06.16-.17l.51-.89a4.32,4.32,0,0,0,.51-1.21.68.68,0,0,1,.42-.57.8.8,0,0,0,.43-.73,3.37,3.37,0,0,1,.67-1,6.22,6.22,0,0,0,.85-1.22,1.28,1.28,0,0,0,.17-.49c0-.1.11-.27.34-.48l.51-.65a12.38,12.38,0,0,0,1.35-2.84,5.81,5.81,0,0,1,1.86-2.67,7.79,7.79,0,0,1,3.22,1.13,7.45,7.45,0,0,1,2,2.11,36,36,0,0,1-3.13,6.4q-2,3.16-4,6.57l-.51.81-.84,1.46a1.94,1.94,0,0,0-.51.89q-.18.57-.51,1.38l-1,.49a4.32,4.32,0,0,0-.42,1.13,4.32,4.32,0,0,1-.42,1.13l-1.53,2.44-1.18,1.62a3.75,3.75,0,0,1-.17.73c-.11.38-.23.57-.34.57a3.19,3.19,0,0,0-.67.81c-.12.21-.34.59-.68,1.13l-.85,1.14Zm-30-34.7a9.67,9.67,0,0,0-1.27,1l-1.52,1.46a9.74,9.74,0,0,0-1.27,1.46,3,3,0,0,0-.51.89.89.89,0,0,1-.34.65l-.67.65a3,3,0,0,1-.68.73,3,3,0,0,0-.68.73,19.37,19.37,0,0,0-1.18,1.94,15,15,0,0,0-.85,2,5.37,5.37,0,0,0,1.53-1.86,8.54,8.54,0,0,1,1.35-2,2,2,0,0,1,1-.73,2,2,0,0,0,1-.73.67.67,0,0,0,.26-.65.65.65,0,0,1,.25-.65,1.89,1.89,0,0,1,1.35-.48,3.61,3.61,0,0,1-.84,1.29l-.76.73-.77.73a2.1,2.1,0,0,0-.5,1,2.17,2.17,0,0,1-.51,1,5.79,5.79,0,0,1-.68.81l-.68.65a.35.35,0,0,0-.08.4,2,2,0,0,1,.08.57.68.68,0,0,1-.5.16.7.7,0,0,0-.51.17,4.59,4.59,0,0,0-.34.81,2.73,2.73,0,0,0-.17.64,1.16,1.16,0,0,1-.42,1,1,1,0,0,0-.43.81,4.17,4.17,0,0,1-.76,1.21c-.39.49-.31.84.26,1.06q5.91-5.36,11.59-11.43t11.42-12.08a13.93,13.93,0,0,0-4.4,1.7A36.79,36.79,0,0,0,186,98.63a6.73,6.73,0,0,0-1.35,1,7.23,7.23,0,0,1-1,.81c-.56.43-1.13.84-1.69,1.22a5.37,5.37,0,0,0-1.35,1.21,1.78,1.78,0,0,0-.68.89c-.23.49-.57.52-1,.08a27,27,0,0,0,3.3-2.67A27.46,27.46,0,0,0,185,98c-.91.43-1.64.81-2.2,1.13A9.16,9.16,0,0,0,181.05,100.41Zm11.85,29.83c-.45,0-.65-.13-.59-.4a4.19,4.19,0,0,1,.25-.81,1.88,1.88,0,0,0,.17-.57q0-.17-.84,0a1.39,1.39,0,0,0-.09.89c.06.38.11.7.17,1s.17.44.34.49S192.67,130.67,192.9,130.24Zm2.88,2.27a15,15,0,0,1-.34-1.94,18.4,18.4,0,0,1,.34-2.11,3.76,3.76,0,0,1-1-1.06,2.33,2.33,0,0,0-1-.89,2.4,2.4,0,0,1-.26,2.11c-.39.54-.14.92.76,1.14a2.36,2.36,0,0,0,.09-1.14q-.09-.65.42-.81a.89.89,0,0,1,.34,1.05,12.74,12.74,0,0,0-.25,1.46,5.31,5.31,0,0,0,0,1.38C194.9,132.13,195.21,132.41,195.78,132.51Zm-1-7.94a1.59,1.59,0,0,1,.43-1.22,2.26,2.26,0,0,0,.59-1,.79.79,0,0,0-.85.16,2.25,2.25,0,0,0-.51.73,1.34,1.34,0,0,0-.08.81A.79.79,0,0,0,194.76,124.57Zm1,0c.56.22.9,0,1-.57s.23-1.16.34-1.7.31-1.06.59-1.87-.08-1.16-1.1-1.05a5,5,0,0,1-.33,2.75A5.22,5.22,0,0,0,195.78,124.57Z"/><path class="cls-1" d="M270.42,104.46c.34.22.39.38.17.49a.31.31,0,0,0-.17.49c-.23,1-.48,1.92-.76,2.83s-.54,1.81-.77,2.68-.45,1.94-.67,2.92a15.3,15.3,0,0,1-1,2.91.15.15,0,0,1-.17.17c-.11,0-.17.11-.17.32l-1,3.73a1.93,1.93,0,0,0,.08.49.45.45,0,0,1-.08.48c-.45.22-.85,1.19-1.19,2.92-.11.33-.22.71-.34,1.14a3.53,3.53,0,0,1-.5,1.13.47.47,0,0,0,.67.08,5.71,5.71,0,0,0,.68-.57l1.69-1.45q2-1.95,4.23-4.14t4.57-4.3q1.69-1.45,4.32-4c1.75-1.73,3.13-3,4.15-3.89.11-.11.28-.11.5,0s.4.11.51,0a6.12,6.12,0,0,1,1-1c.45-.38,1-.79,1.52-1.22A9.07,9.07,0,0,0,289,105a1.69,1.69,0,0,1,1.78-.73c-.12,1.19-.06,1.73.17,1.62a7.76,7.76,0,0,1,1.69-.32,4,4,0,0,1-1.44,3.48,12.38,12.38,0,0,0-2.62,2.68c.56.54,1,.49,1.27-.16a2.84,2.84,0,0,1,.93-1.3c.34-.33.7-.65,1.1-1a1.93,1.93,0,0,1,1.27-.49q.84,2.76-.51,4.13c-.9.92-1.86,1.82-2.88,2.68a1.09,1.09,0,0,0-.25,1c.05.44,0,.71-.26.81a5.44,5.44,0,0,1-.84.57,11.43,11.43,0,0,0-1.36,1c-.45.38-.87.76-1.27,1.14s-.59.68-.59.89a4.3,4.3,0,0,1-1.35,1.38,8.77,8.77,0,0,0-1.69,1.54c-2,1.94-4.15,4-6.35,6.24s-4.49,4.41-6.86,6.57a25.56,25.56,0,0,0-2.7,2.19,5.42,5.42,0,0,1-4.4,1.05,9.55,9.55,0,0,1-2.88-3.73,6.76,6.76,0,0,0-3.39-3.4,2.65,2.65,0,0,0-.5-2.19,2.6,2.6,0,0,1-.51-2.19,1.55,1.55,0,0,0-1.1-.81,1.14,1.14,0,0,1-.93-1,10.4,10.4,0,0,1-.17-5.59,24,24,0,0,0,.67-5.59c-.11-.76-.28-.84-.5-.25s-.51.84-.85.73a3.17,3.17,0,0,1-1,1.63l-1.69,1.62L244,124.89a3.6,3.6,0,0,1-.76.57,2.38,2.38,0,0,0-.76.73,18.11,18.11,0,0,1-1.69,1.7,24,24,0,0,0-2,2,6.86,6.86,0,0,0-1.19,1.54,4.39,4.39,0,0,1-1.18,1.38,4,4,0,0,1-1.1.48,2.05,2.05,0,0,0-.93.49c-.23,0-.37.16-.43.48s-.19.49-.42.49a1.3,1.3,0,0,1-.93.25,1.24,1.24,0,0,0-.93.24.48.48,0,0,0-.17.32c0,.11-.11.16-.34.16a3.37,3.37,0,0,0-1.18.41,3.28,3.28,0,0,1-2.2.08,1,1,0,0,1-.68-.57,3,3,0,0,0-.68-.89.85.85,0,0,0-.76-.24.83.83,0,0,1-.76-.25,5.25,5.25,0,0,1-1.36-1.62,21.36,21.36,0,0,1-1.18-2.27,8.63,8.63,0,0,0-1.69-1.29A15.3,15.3,0,0,1,219,128a1.19,1.19,0,0,1-.25-.89,1.15,1.15,0,0,0-.25-.89c0-.11-.14-.27-.43-.49s-.42-.38-.42-.48a2.62,2.62,0,0,1-.34-1.46,8.31,8.31,0,0,0-.17-1.79,12,12,0,0,0-.42-1.54,3.77,3.77,0,0,1-.25-1.21,2.81,2.81,0,0,1,.25-1.3,5,5,0,0,0,.42-1.14,6.68,6.68,0,0,0-.08-1,4,4,0,0,1,.08-1.38,43,43,0,0,1,1.86-7c.12-.43.26-.89.43-1.38s.37-1,.59-1.54c.11-.21.34-.62.68-1.21a5.76,5.76,0,0,0,.67-1.71,14,14,0,0,1,1.53-3.24A4.13,4.13,0,0,1,224,96.84c.11-.21.31-.62.59-1.21s.54-1.11.77-1.54l1-1.63.85-1.29.51-.49c.33-.54.7-1.11,1.1-1.7a12.63,12.63,0,0,1,1.77-2l1.53-.81a1.43,1.43,0,0,0,.42-.73,1.47,1.47,0,0,1,.42-.73.81.81,0,0,1,.68,0,.74.74,0,0,0,.68,0,4.45,4.45,0,0,1,1.52-1.21A22.38,22.38,0,0,1,243,82.09a13.23,13.23,0,0,1,2.37.65c.9.32,1.63.59,2.2.81a11.16,11.16,0,0,1,1.61,1.21l1.94,1.87c.57.54,1,1,1.44,1.29A8.33,8.33,0,0,1,254,89.71c.11.22.2.3.25.24s.14,0,.26.24A.93.93,0,0,0,255,91a1.27,1.27,0,0,1,.5,1.14v.32a1.39,1.39,0,0,0,.6.57c.28.16.42.3.42.41a1.24,1.24,0,0,1,0,.89.85.85,0,0,0,0,.73c0,.11.08.14.25.08s.26,0,.26.24a.89.89,0,0,0,.34.65.71.71,0,0,1,.16.81,1.36,1.36,0,0,0,.6-1,5.66,5.66,0,0,1,.25-1.22,5.93,5.93,0,0,0,.59-1,1.73,1.73,0,0,0-.08-1.38,2.13,2.13,0,0,1,1.52-.49,3.72,3.72,0,0,0-.42-1.21,1.33,1.33,0,0,1-.09-1.06l.17-.16c.23,0,.34-.1.34-.32s0-.35-.08-.73,0-.62.08-.73a1.5,1.5,0,0,0,.43-.89,5.48,5.48,0,0,1,.42-1.38.47.47,0,0,1,.34-.16c.11,0,.17-.11.17-.33V84.2q.16-.49.42-1.71a17.21,17.21,0,0,1,.59-2.19.15.15,0,0,1,.17-.16c.11,0,.23-.1.34-.32a6.86,6.86,0,0,0,.17-1.14,1.54,1.54,0,0,1,.34-.81c-.12-.43,0-.67.25-.73a5.28,5.28,0,0,1,.93-.08,1.84,1.84,0,0,0,.93-.24c.28-.16.43-.57.43-1.22-.57-.54-1-.57-1.19-.08a6.79,6.79,0,0,0-.51,1.54c-.56-.32-.67-.86-.34-1.62a19,19,0,0,0,.85-2.27,2.52,2.52,0,0,0-.08-.49.46.46,0,0,1,.08-.48h.68a17,17,0,0,0,.59-2.35c.17-.92.82-1.33,1.95-1.22a2.47,2.47,0,0,0-.76-.49c-.29-.1-.43-.43-.43-1a3.15,3.15,0,0,0,1.36-1.94,3.81,3.81,0,0,1,1.35-2.11,9.16,9.16,0,0,1,.76-3.81c.51-1.14,1-2.3,1.61-3.49l1.35-3.4a11.77,11.77,0,0,0,.6-1.87,1.3,1.3,0,0,1,1.43-1,3.32,3.32,0,0,0-.08-.73,1.06,1.06,0,0,1,.08-.73l.34-.65.34-.65q0-.15.42,0c.29.11.43.11.43,0s.05-.29-.17-.57a1.31,1.31,0,0,1-.34-.89c0,.22.08.19.25-.08s.26-.35.26-.24a45.35,45.35,0,0,0,3-5.92q1.53-3.48,3.22-6.57A1.08,1.08,0,0,1,284,32a1.15,1.15,0,0,0,.51-.49,2.05,2.05,0,0,0-.09-.49.44.44,0,0,1,.09-.48l1-.65a1.23,1.23,0,0,0,.51-1.13,2.89,2.89,0,0,1,.59-.73,3.08,3.08,0,0,0,.59-.73L289,24.21a5.8,5.8,0,0,0,1-1.14,11.47,11.47,0,0,0,.85-1.62,4.9,4.9,0,0,1,1.18-1.62l.85-.81,1-1,1.36-2.1c.9-.76,1.66-1.44,2.28-2a2.67,2.67,0,0,1,1.78-.89,4,4,0,0,1,2.62.89,11,11,0,0,1,1.95,2,.83.83,0,0,0,.59-.73c.06-.38.48-.41,1.27-.08a10.25,10.25,0,0,0,2,2.51,9.14,9.14,0,0,1,2,2.67,81.09,81.09,0,0,1-5.07,17.51,1.86,1.86,0,0,0,.08.49.47.47,0,0,1-.08.49h-.34v.81c-.23.22-.34.35-.34.4a3.32,3.32,0,0,1-.17.57l-.34.65a.66.66,0,0,0-.17.49V42a2.91,2.91,0,0,0-1,1.3,2.68,2.68,0,0,0,.08.56c.06.28,0,.47-.08.57a7,7,0,0,0-1.86,2.84c-.57,1.35-1.13,2.57-1.7,3.65q-.68,1.29-1.44,3a33.24,33.24,0,0,1-1.6,3.16L295,59.55l-1,.81c-.11.11-.11.27,0,.49s.12.38,0,.48a2.92,2.92,0,0,0-.93,1.3c-.28.65-.59,1.35-.93,2.11-.23.11-.37.14-.42.08s-.09.08-.09.41v.48l-1,1c-.11.11-.11.28,0,.49s.11.38,0,.49h-.51a1.91,1.91,0,0,0,.09.48.49.49,0,0,1-.09.49h-.51a2.05,2.05,0,0,0,.09.49c.05.22,0,.32-.09.32H289a2.58,2.58,0,0,0-.43,1.14,2.61,2.61,0,0,1-.42,1.13c-.11.22-.23.3-.34.24s-.17,0-.17.25a1.77,1.77,0,0,1-.51,1.21c-.33.38-.73.84-1.18,1.38a.48.48,0,0,0-.17.33,1.25,1.25,0,0,1-.17.48,2.63,2.63,0,0,1-.68.49,1.08,1.08,0,0,0-.5.49c-.12.1-.12.27,0,.48s.11.38,0,.49a2.42,2.42,0,0,0-.51.65,2.86,2.86,0,0,1-.51.64,1,1,0,0,1-.51.25c-.23,0-.34.13-.34.24a.47.47,0,0,0-.08.49,2.57,2.57,0,0,1,.08.48,2.16,2.16,0,0,1-.5.41,2.1,2.1,0,0,0-.51.4,37.63,37.63,0,0,1-2.88,3.65,13.67,13.67,0,0,0-2.37,3.65,1.64,1.64,0,0,0-1.18.73q-.35.57-1.53.24-2.53,8.59-5.33,17t-5,17.59a3.86,3.86,0,0,0,.85-1.87,12.17,12.17,0,0,1,.5-2v-.81a2.72,2.72,0,0,0,.6-1.14c.16-.54.36-1.13.59-1.78.56-1.84,1.27-3.81,2.11-5.92S269.63,106.3,270.42,104.46ZM241.64,98.3a1.7,1.7,0,0,0-1.1.57l-.93.89a5.14,5.14,0,0,0-1.6,1.54,12.34,12.34,0,0,1-1.27,1.7,1.3,1.3,0,0,1-.43.49,1.18,1.18,0,0,0-.42.65,2.42,2.42,0,0,0-.51.65,2.58,2.58,0,0,1-.51.65,4.29,4.29,0,0,1-1,1,2.18,2.18,0,0,0-.85,1,1.64,1.64,0,0,1-.34,1c-.22.33-.39.6-.5.81a1.39,1.39,0,0,0-.51,1,1.66,1.66,0,0,1-.34,1,5.27,5.27,0,0,1-.68.81.74.74,0,0,1-.17.41,5.54,5.54,0,0,0-.33.56c0,.22-.06.3-.17.25s-.17,0-.17.08a6.75,6.75,0,0,0-.6,1.94,5.24,5.24,0,0,1-.42,1.62,1,1,0,0,1-.51.49,1.08,1.08,0,0,0-.5.49l-.51,1.78a7.59,7.59,0,0,0-.42,1.7,5.69,5.69,0,0,1-.43,1.54,5.72,5.72,0,0,0,2-1l1.7-1.3a25.36,25.36,0,0,0,3.38-2.75,44.89,44.89,0,0,0,3.81-3.08q1.77-1.62,3.3-3.25a9.46,9.46,0,0,0,1.86-2.27,12,12,0,0,1,3.64-3.81,18.7,18.7,0,0,0,3.81-3.32,20.14,20.14,0,0,0,1.94-1.78,2.52,2.52,0,0,0,.6-2.44,10.32,10.32,0,0,0-5-1.29,7.82,7.82,0,0,0-4,.81Zm19.64-8.59a1.51,1.51,0,0,0,1.52-1.3,15.72,15.72,0,0,1,.51-2.27c-.57,0-.93.14-1.1.41a2.65,2.65,0,0,0-.34,1c-.06.43-.11.84-.17,1.22A1.55,1.55,0,0,1,261.28,89.71Zm.51.48c-.46.55-.57.9-.34,1.06a.87.87,0,0,0,1.27-.41C262.77,90.63,262.46,90.41,261.79,90.19Zm14.89-30.31c-.68-.22-1,0-1.1.56a3,3,0,0,1-.42,1.38h-.51a1.18,1.18,0,0,0-.25.65,1.29,1.29,0,0,1-.26.65,5.74,5.74,0,0,0-.42,1.3,1.51,1.51,0,0,1-.42.81c-.12,0-.15.1-.09.32a2.43,2.43,0,0,1,.09.65.55.55,0,0,1-.51.32.74.74,0,0,0-.51.16,1.63,1.63,0,0,0-.25,1.06,1.16,1.16,0,0,1-.26.89,3.78,3.78,0,0,0-.51,2.27c-.56-.11-.82.08-.76.57s-.14.73-.59.73a5.7,5.7,0,0,1,.85-3.33,6.42,6.42,0,0,0,1-3.16c-.34-.21-.56-.27-.68-.16a.79.79,0,0,0-.16.57V67a.94.94,0,0,1-.17.65c0,.11-.15.11-.43,0s-.42-.11-.42,0-.14.32-.08.65a5.79,5.79,0,0,1,.08.64l-.51.49c-.34.54-.48.89-.42,1.06a6.39,6.39,0,0,0,.42.89,4.18,4.18,0,0,0-3.55,2.27c.56.21.87.16.93-.17a1.39,1.39,0,0,1,.42-.81,6.44,6.44,0,0,1-.08,3.17c-.29.81-.54,1.64-.76,2.51a2.71,2.71,0,0,0,.76.24c.28.06.31.3.08.73a2.27,2.27,0,0,1-1.1-.57,2.1,2.1,0,0,0-1.44-.4c0,.76.57,1.08,1.7,1-.34.65-.43.89-.26.73a1.72,1.72,0,0,1,1.1-.24,2,2,0,0,1-.67,1.21c-.34.27-.23.63.33,1.06-1.24-.11-1.75.08-1.52.57a7.14,7.14,0,0,1,.51,1.54,3.05,3.05,0,0,0-2.29-.09,5.19,5.19,0,0,0-1.27,1.54q.85.16,1-.24a2.1,2.1,0,0,1,.51-.73,2.59,2.59,0,0,0,.67.49,2.83,2.83,0,0,1,.68.48c-.56-.21-1,0-1.35.65s-.23,1,.34,1.14c.11-.22.28-.22.5,0a1.43,1.43,0,0,1,.43.81,1.53,1.53,0,0,1-.17,1c-.17.33-.54.38-1.1.16a1.07,1.07,0,0,1,.34-.81c.22-.21.11-.43-.34-.65a2.09,2.09,0,0,0-.26,2.36,6.68,6.68,0,0,1,.6,2.67c-.23,0-.34.16-.34.49a.65.65,0,0,0,.34.65c.22-1,.59-1.57,1.1-1.79a2.22,2.22,0,0,0,1.1-1.62c0,.11-.09,0-.26-.24a1.39,1.39,0,0,1-.25-.73,4.39,4.39,0,0,1,.08-.81c.06-.33.2-.49.43-.49v.81a.44.44,0,0,0,.5.49,2.1,2.1,0,0,1,.51-1.7c.45-.6.56-1.06.34-1.38,0-.22-.2-.3-.59-.25s-.48,0-.26-.24a1.75,1.75,0,0,0,1.53-1.46,24.81,24.81,0,0,1,.76-2.43c.28-.75.53-1.4.76-2a3,3,0,0,0,.17-1,1.66,1.66,0,0,1,.34-1c0-.11.14-.16.42-.16s.42-.11.42-.33a1.25,1.25,0,0,0,.17-1.05c-.11-.27,0-.51.34-.73a.49.49,0,0,0,.09-.49,2,2,0,0,1-.09-.48h.51q.17,0,0-.33c-.11-.21-.11-.38,0-.49a2,2,0,0,1,.68-.89,2.39,2.39,0,0,0,.67-.73c.45-.64.57-1.05.34-1.21s-.34-.51-.34-1.06c.79,0,1.16-.37,1.1-1.13a2,2,0,0,1,.43-1.62c.22-.22.42-.27.59-.16s.36,0,.59-.33q-.16.17-.51-.24a.65.65,0,0,1-.17-.73l1-.49a.7.7,0,0,0,.08-.57,1.41,1.41,0,0,1-.08-.4l.34-.32a.15.15,0,0,0,.17-.17,2.56,2.56,0,0,0,0-1.29,1.84,1.84,0,0,1,0-1.14,1.15,1.15,0,0,1,.76-.49c.39-.1.48-.43.25-1a1.46,1.46,0,0,0-1.18.41,2.57,2.57,0,0,0-.51,1,7.92,7.92,0,0,0-.25,1.13,1.27,1.27,0,0,1-.6.9,2.57,2.57,0,0,1,.43-2A2.9,2.9,0,0,0,276.68,59.88Zm-13.37,72-.34.81.93-.89a3.25,3.25,0,0,1,.76-.57c0-.32.17-.43.51-.32-.23-.65-.48-.62-.76.08S263.76,132,263.31,131.86Zm3.55-2.92-.84.82c.45-.43.84-.79,1.18-1.06s.51-.51.51-.73a.7.7,0,0,0-.42.41A1.58,1.58,0,0,1,266.86,128.94Zm2.54-55.28c.23.75.11,1.16-.34,1.21a.67.67,0,0,0-.67.73c-.68-.21-.82-.65-.43-1.3S268.84,73.44,269.4,73.66Zm-.51,16c.34-.76.45-1.22.34-1.38s-.25-.16-.42,0a1.31,1.31,0,0,0-.34.73A.53.53,0,0,0,268.89,89.71Zm1.53,1.94c-.45-.32-.76-.43-.93-.32a.48.48,0,0,0-.26.4c0,.17.11.3.34.41S270.08,92.09,270.42,91.65Zm-.51-25.45c.34-.22.39-.46.17-.73a.64.64,0,0,1-.17-.73h.85a1.71,1.71,0,0,0,.33-1.22c0-.59-.11-.89-.33-.89a4,4,0,0,1-1.1,1.79C269,65.06,269.12,65.66,269.91,66.2ZM269.4,87c.79.11,1.16-.29,1.1-1.21a4.87,4.87,0,0,1,.26-2.19c.11-.11.33-.14.67-.08s.45,0,.34-.25a1.35,1.35,0,0,1-.42-1.21,4.41,4.41,0,0,1,.42-1.46c.23-.49.42-1,.59-1.38s.14-.7-.08-.81c-.68,1.19-1.35,2.43-2,3.73A9.23,9.23,0,0,0,269.4,87Zm4.23-27.07a1.1,1.1,0,0,1-.33.81c-.23.21-.23.59,0,1.13A2.94,2.94,0,0,0,272,63.36c-.29.71-.54,1.33-.77,1.87,1,.1,1.61-.44,1.78-1.63a16.2,16.2,0,0,1,.59-2.75c.11-.11.48-.41,1.1-.89s.43-.79-.59-.9c0,.33-.2.49-.59.49S273.18,59.66,273.63,59.88ZM272.28,84.2c0-.11.08-.09.25.08a.68.68,0,0,1,.26.4l-.34.33c-.11.11,0,.16.34.16a2.78,2.78,0,0,0,.42-.81,5.78,5.78,0,0,0,.34-1.22,1.15,1.15,0,0,0-.09-.81c-.11-.16-.33,0-.67.41.56.21.65.38.25.48A1.12,1.12,0,0,0,272.28,84.2Zm1.35-7.62a1.59,1.59,0,0,1,.43-1.22,2.16,2.16,0,0,0,.59-1.06c-.57-.1-1,.22-1.27,1S273.18,76.47,273.63,76.58Zm2-7.14h1v-.81h-1Zm1-10.38h1v-1h-1Zm.51-1.46c.9.22,1.24-.21,1-1.29a2,2,0,0,0,1.36-1.46,1.93,1.93,0,0,0-1.61,1C277.67,56.5,277.41,57.07,277.19,57.6Zm0,8.11h1v-1h-1ZM282.1,51a3.28,3.28,0,0,1-.68,2.43,6.65,6.65,0,0,1-1.35,1.46,1.93,1.93,0,0,0,.08.49.46.46,0,0,1-.08.48h-.51v1h-.34c-.23.11-.28.46-.17,1.06s.28.84.51.73c-.12-.54,0-.87.34-1a1,1,0,0,0,.67-.48,4,4,0,0,0,.51-1,1.87,1.87,0,0,1,.51-.81c.22-.11.45,0,.68.24s.44.19.67-.24c.23-.65.14-1-.25-1.06s-.59-.35-.59-.89a1.94,1.94,0,0,0,.76-.41c.17-.16.53-.18,1.1-.08a1.29,1.29,0,0,1,0-1.29c.22-.44.45-.84.67-1.22s.43-.73.6-1a.61.61,0,0,0-.09-.81,2.87,2.87,0,0,1-1.44,1.54A8.28,8.28,0,0,0,282.1,51Zm17.26-17.51q-.35.81-.51,1.29c-.11.33-.28.76-.51,1.3a.76.76,0,0,1-.5.41.38.38,0,0,0-.34.4c0,.22-.06.33-.17.33a.49.49,0,0,0-.34.16,1.56,1.56,0,0,0-.34.89,1.56,1.56,0,0,1-.34.89q0,.16-.42.24a1.21,1.21,0,0,0-.59.25,1,1,0,0,0-.17,1,1,1,0,0,1-.17,1c-.23,0-.4.17-.51.49a6.53,6.53,0,0,0-.84,1.38,2.07,2.07,0,0,1-1.19,1,2.92,2.92,0,0,1-.51,2.52,6,6,0,0,1-1.35,1.54.48.48,0,0,0-.09.48,2.05,2.05,0,0,1,.09.49l-1,1.94a1,1,0,0,0,.09.49.6.6,0,0,1-.09.49q0,.16-.42.24t-.42.24a1.85,1.85,0,0,0-.26,1.3,1.36,1.36,0,0,1-.25,1.14l-1,.48c-.11.11-.11.27,0,.49s.11.38,0,.48a9.68,9.68,0,0,0-.67.73,1.76,1.76,0,0,1-.85.57,9.76,9.76,0,0,1-1,3.49,23.78,23.78,0,0,0-1.18,2.67,1.13,1.13,0,0,0-.25.89,1.69,1.69,0,0,1-.26,1.06q0,.17-.42.24t-.42.24a1,1,0,0,0-.09.73,3.53,3.53,0,0,1,.09.73c0,.22-.09.3-.26.25s-.25,0-.25.24l-1,2.27a1.34,1.34,0,0,0-.17.57q0,.24-.33.24a1.93,1.93,0,0,0,.16.73c.12.27.23.19.34-.24l.51-.81a1.2,1.2,0,0,1,.42-.49,4.19,4.19,0,0,0,.6-.49,1.54,1.54,0,0,0,.17-.73,1,1,0,0,1,.33-.73,3.43,3.43,0,0,1,.43-.32,1.2,1.2,0,0,0,.42-.49,1,1,0,0,0,.34-.73,1.51,1.51,0,0,1,.17-.73,6.25,6.25,0,0,1,1.18-1,5.69,5.69,0,0,0,.43-1.54,5.4,5.4,0,0,1,.42-1.54,1.82,1.82,0,0,1,.59-.32,1,1,0,0,0,.59-.49,3.83,3.83,0,0,0,.6-1.46,3.73,3.73,0,0,1,.42-1.3,1.08,1.08,0,0,1,.51-.48.53.53,0,0,0,.34-.49.34.34,0,0,0,.08-.4,1.67,1.67,0,0,1-.08-.57q.16-.33.33-.24c.12,0,.17,0,.17-.09a.75.75,0,0,0,.26-.73.72.72,0,0,1,.25-.72,1.06,1.06,0,0,1,.51-.49,1.15,1.15,0,0,0,.51-.49,5.39,5.39,0,0,0,.59-1.54,5.61,5.61,0,0,1,.42-1.38c0-.1.11-.21.34-.32a1.1,1.1,0,0,0,.51-.49,11.07,11.07,0,0,0,.51-1.54,6.16,6.16,0,0,1,.5-1.38c.12-.21.2-.29.26-.24s.14,0,.25-.24a1.21,1.21,0,0,0-.08-.49c-.06-.1,0-.27.08-.48s.14-.25.43-.41a.68.68,0,0,0,.42-.57,6.32,6.32,0,0,0,.51-1.38,10.52,10.52,0,0,1,.5-1.54c.11-.1.2-.13.26-.08s.19,0,.42-.24a1,1,0,0,0-.17-.57c-.11-.16-.06-.29.17-.4a1.06,1.06,0,0,1,.51-.49,1.15,1.15,0,0,0,.51-.49,4.06,4.06,0,0,0,.42-1.29,5.78,5.78,0,0,1,.42-1.46l1.53-3.24a4.56,4.56,0,0,1,.5-1.38c.23-.38.06-.62-.5-.73a3.09,3.09,0,0,1-.43.81A5.78,5.78,0,0,1,299.36,33.45ZM283.45,59.88h1v-.82h-1Zm1.69-3.57c-.22.11-.45.48-.67,1.13s0,1,.67,1.14A5,5,0,0,1,286,57.2C286.33,56.82,286,56.53,285.14,56.31Z"/><path class="cls-1" d="M321.7,134.94c-.34,0-.51-.37-.51-1.13a4.67,4.67,0,0,0-1.52,2.92,2.64,2.64,0,0,0,.51-.65c.11-.22.45-.27,1-.16a12.43,12.43,0,0,1-1.52,3.56,9.9,9.9,0,0,0-1.35,3.9,1.82,1.82,0,0,1-.17-2.6,4.25,4.25,0,0,0,1-2.59,6,6,0,0,0-1.35,2,5.11,5.11,0,0,1-1.52,2c-.34.22-.57.22-.68,0a1.13,1.13,0,0,1,0-.89c.11-.38.22-.73.34-1.06a5.35,5.35,0,0,1,.34-.81,6.87,6.87,0,0,0,.59-.64,2.89,2.89,0,0,0,.42-1.14c-.34-.43-.59-.57-.76-.41a3.06,3.06,0,0,0-.51.73,5.18,5.18,0,0,1-.59.9,1,1,0,0,1-1,.24c-.11-.54-.05-.87.17-1s.34-.43.34-1a1.5,1.5,0,0,0-.76.49,1.5,1.5,0,0,1-.76.49,1.27,1.27,0,0,0,.34,1l.67.65a2,2,0,0,1,.51.73,2.81,2.81,0,0,1,0,1.38,1.06,1.06,0,0,1-.76.24l-.76-.24c.22.75.28,1.21.17,1.37s-.34.52-.68,1.06a1.33,1.33,0,0,0,1.44.16c.62-.22.82-.76.59-1.62.79.32,1,.67.76,1.05a10,10,0,0,0-.76,1.22,1,1,0,0,0-.25.81.68.68,0,0,1-.26.65,1.49,1.49,0,0,1-.67.4c-.23.06-.34.25-.34.57-.79-.22-.91-.57-.34-1.05a2,2,0,0,0,.85-1.38q-.85-.81-1.53-.24a2.29,2.29,0,0,1-2,.24.72.72,0,0,0,.76.48h1.1a16.19,16.19,0,0,1-1.27,3c-.5.92-1,1.81-1.6,2.68-.12.43-.09.7.08.81l.51.32a1.2,1.2,0,0,1,.42.49,1.43,1.43,0,0,1,0,1c-.56,0-.82-.27-.76-.81s-.14-.81-.59-.81a.65.65,0,0,0-.51.65v1c-.91-.21-1.41-.11-1.52.33a2.23,2.23,0,0,0,.5.89c.11.05.26,0,.43-.24a5,5,0,0,1,.59-.65,1.16,1.16,0,0,1,.85-.33,1.2,1.2,0,0,1,.08,1.63A4.08,4.08,0,0,1,308,157a.83.83,0,0,1-1,.49c-.23-.54-.12-.84.33-.89s.68-.35.68-.89a3.68,3.68,0,0,1-1.86.48,2.26,2.26,0,0,1,.34-1.78c.34-.43.22-.92-.34-1.46-.57-.22-.79,0-.68.57s0,1-.34,1.21-.53.54-.93,1a1.74,1.74,0,0,0-.25,1.78c.45.11.76.05.93-.16a4,4,0,0,0,.42-.65.77.77,0,0,1,.43-.41c.17,0,.42.09.76.41,0,.22-.28.32-.85.32-.34.54-.28.81.17.81s.68.06.68.17,0,.59-.26,1.13l-.59,1.14a4.41,4.41,0,0,0-.42,1,3.3,3.3,0,0,1-.59,1,7.85,7.85,0,0,0-1.19,1c-.56.86-1,1.48-1.27,1.86a6.38,6.38,0,0,1-1.77,1.38,1.14,1.14,0,0,0-.26.65c-.06.32-.14.48-.25.48a.32.32,0,0,1-.43,0,.31.31,0,0,0-.42,0,4.09,4.09,0,0,0-1.18,1.3,2.47,2.47,0,0,1-.85,1q-.17.16-.42,0a.32.32,0,0,0-.43,0v.49a2.6,2.6,0,0,1-.5-.08.5.5,0,0,0-.51.08v.49a4.81,4.81,0,0,1-2.46,0,2.93,2.93,0,0,0-1.94,0,2.09,2.09,0,0,0-1.53-1,2.11,2.11,0,0,1-1.52-1,3.19,3.19,0,0,1-1.78-.41,2.79,2.79,0,0,0-1.6-.4,2.1,2.1,0,0,1-.51-.73,4.42,4.42,0,0,0-.51-.89,3.69,3.69,0,0,0-.59-.49,3.26,3.26,0,0,1-.42-.32,1.93,1.93,0,0,1,.08-.49.45.45,0,0,0-.08-.48,4.28,4.28,0,0,1-.85-2,7.32,7.32,0,0,1,0-3.16,6,6,0,0,1,.34-1.87q.33-1,.51-1.86a10.15,10.15,0,0,0,.5-1.54c.12-.49.29-1.11.51-1.87,0-.11.09-.16.25-.16s.26-.11.26-.32v-.49a1.06,1.06,0,0,1,.51-.49c.22-.11.33-.21.33-.32a.84.84,0,0,0,.09-.65,2.05,2.05,0,0,1-.09-.49h.51a3.63,3.63,0,0,0,.51-1,2,2,0,0,1,.51-.81,3.75,3.75,0,0,1,1.18-1,1.13,1.13,0,0,0,.17-.49,1.28,1.28,0,0,1,.17-.49,4,4,0,0,1,.59-.48,3.21,3.21,0,0,0,.43-.33,6.24,6.24,0,0,1,1.1-1.13,6.51,6.51,0,0,0,1.27-1.46,1.67,1.67,0,0,0,.76-1,1.33,1.33,0,0,1,.42-.81q.17-.17.51,0a.46.46,0,0,0,.51,0c.45-.55,1-1.25,1.69-2.11a12.49,12.49,0,0,1,2-2.11,2.79,2.79,0,0,1,.51.08.51.51,0,0,0,.51-.08,6.64,6.64,0,0,1,1-.81,5.79,5.79,0,0,0,.68-.81,4.76,4.76,0,0,1,.68-.81,16.25,16.25,0,0,1,1.77-.89,8.37,8.37,0,0,0,1.78-1.06c.22-.1.31-.21.25-.32s.09-.16.43-.16a1.51,1.51,0,0,0,.67-.17,1.55,1.55,0,0,1,.51-.16.49.49,0,0,0,.34-.16l.68-.65.67-.65a6.61,6.61,0,0,1,1.78-1,4.32,4.32,0,0,0,1.61-1,1.51,1.51,0,0,1,.34-1.38,2.88,2.88,0,0,0,.67-1.38c0-.21.15-.35.43-.4a.79.79,0,0,0,.59-.41,2.18,2.18,0,0,0,.34-1.3,3.8,3.8,0,0,1,.17-1.29.27.27,0,0,1,.34-.08c.11,0,.17,0,.17-.25a1.59,1.59,0,0,1,.17-.89,4.8,4.8,0,0,0,.33-.57q.85-2.1,1.44-4c.4-1.3.87-2.65,1.44-4.05-.57-.22-1-.11-1.18.32s-.46.81-.68,1.14l-1,1a1.09,1.09,0,0,0-.5,1c-.46-.21-.65-.4-.6-.57a1.1,1.1,0,0,1,.43-.48,2.33,2.33,0,0,0,.59-.65,1,1,0,0,0,.08-.89,5.25,5.25,0,0,1-.5.65c-.12.1-.29.27-.51.48a8.33,8.33,0,0,1-.76.89c-.17.17-.09.63.25,1.38a32.56,32.56,0,0,0-3.13,3.08,33.75,33.75,0,0,1-3.13,3.08,18.39,18.39,0,0,1-3.81,2.52,14.57,14.57,0,0,1-4.82,1.37,4.76,4.76,0,0,0-2.2-1.13,2.15,2.15,0,0,1-1.7-1.62,2.3,2.3,0,0,1-1.94-.41,3.47,3.47,0,0,0-1.95-.73.65.65,0,0,0-.59-.73,1.4,1.4,0,0,1-1.19-1.54,1.28,1.28,0,0,0-.25-1c0-.11-.06-.13-.17-.08s-.22,0-.34-.24a1.25,1.25,0,0,0-.51-1.14,1.08,1.08,0,0,1-.5-1v-.49a1.2,1.2,0,0,1-.26-1,8,8,0,0,0-.25-2.35,24.25,24.25,0,0,1-.26-2.6,18.14,18.14,0,0,1,.26-3.73,22.11,22.11,0,0,1,.93-2.83c.51-1.35,1.1-2.79,1.78-4.3s1.32-2.92,1.94-4.22A31,31,0,0,1,292.25,92a9.78,9.78,0,0,1,1.1-1.46,6.17,6.17,0,0,0,.93-1.3,9.79,9.79,0,0,1,.85-1,9.93,9.93,0,0,0,.84-1,2.83,2.83,0,0,0,.6-.9,2.87,2.87,0,0,1,.59-.89,2.57,2.57,0,0,1,1.52-.48,1.9,1.9,0,0,0,1.36-.49,3.43,3.43,0,0,1,1.52.89,4.8,4.8,0,0,0,1.52,1c0,.44.37.57,1.1.41s1,0,.77.57a2.75,2.75,0,0,0,1.1,1.86,1.82,1.82,0,0,1,.59,2,1.79,1.79,0,0,1-.85,1.46,4.49,4.49,0,0,0-1.18.81,27.73,27.73,0,0,0-2.8,4.78q-1.44,3-2.7,6.33t-2.29,6.56a25.07,25.07,0,0,0-1.18,5.51,1.82,1.82,0,0,0,1.86-.32,7.8,7.8,0,0,1,1.52-1.13,10.15,10.15,0,0,0,2.46-2.11,34.39,34.39,0,0,1,2.45-2.6,32.81,32.81,0,0,1,2.79-2.1,11.91,11.91,0,0,0,2.29-2,1.65,1.65,0,0,0,.42-1,1.68,1.68,0,0,1,.42-1,12.33,12.33,0,0,1,1.44-1.45c.51-.44,1-.92,1.61-1.46a5.63,5.63,0,0,1,1.52-1.3,4.42,4.42,0,0,0,1.36-1.14,2.07,2.07,0,0,0,.51-.89,2,2,0,0,1,.5-.89,17.87,17.87,0,0,1,2.63-2.35,28.49,28.49,0,0,0,2.79-2.35.76.76,0,0,0,.25-.73.74.74,0,0,1,.26-.73c.22-.22.62-.57,1.18-1a10.88,10.88,0,0,0,1.36-1.38,21.57,21.57,0,0,0,1.6-1.71,5.35,5.35,0,0,1,1.78-1.37c.56-.22.82-.19.76.08a.74.74,0,0,0,.26.73,7.08,7.08,0,0,0,1.18.81,1.3,1.3,0,0,1,.68,1.46c1.12-.22,1.8,0,2,.56a2.84,2.84,0,0,0,1,1.38,16.08,16.08,0,0,1-.42,1.62,13.87,13.87,0,0,0-.42,1.79,4.1,4.1,0,0,0-.34,1.62,4.1,4.1,0,0,1-.34,1.62h-.34c-.11,0-.17.11-.17.32a10.47,10.47,0,0,1-.08,1.38,6.46,6.46,0,0,1-.42,1.38,17.29,17.29,0,0,0-.43,2.6,8.57,8.57,0,0,1-.59,2.43c0,.11-.06.16-.17.16s-.17.11-.17.32a8.88,8.88,0,0,0-.42,1.79,3.83,3.83,0,0,1-.59,1.78,1.46,1.46,0,0,0-.43.81.79.79,0,0,1-.59.65,2.44,2.44,0,0,1,.09,1.7q-.25,1.06-.6,2.19c-.22.65-.45,1.33-.67,2a12.17,12.17,0,0,1-.68,1.7c.56.32,1,.3,1.18-.08a1.8,1.8,0,0,1,.68-.73,1.85,1.85,0,0,1,1-.32,1.86,1.86,0,0,0,1-.33.65.65,0,0,0,.17-.49.65.65,0,0,1,.17-.48,2.1,2.1,0,0,1,.59.08.41.41,0,0,0,.43-.08,1.07,1.07,0,0,0,.25-.49,1,1,0,0,1,.25-.48,7.61,7.61,0,0,1,1.36-.41,4.16,4.16,0,0,0,1.18-.41c.23-.1.31-.21.26-.32s0-.16.25-.16a.67.67,0,0,0,.68-.49q.17-.48.84-.48c.23,0,.43-.17.6-.49a1,1,0,0,1,.93-.49,3.11,3.11,0,0,0,1.18-.81l1.19-1.13a1.31,1.31,0,0,1,.5-.17c.11,0,.28-.1.51-.32.45-.21.62-.32.51-.32a4.91,4.91,0,0,1,1.44-1,7.48,7.48,0,0,0,1.61-1,1.45,1.45,0,0,0,.42-.65,1.47,1.47,0,0,1,.42-.65q.16-.15.51,0c.23.11.39.11.51,0,.22-.32.62-.86,1.18-1.62a1.49,1.49,0,0,1,2.2-.32c.68.76.68,1.32,0,1.7a4.18,4.18,0,0,0-1.35,1c-.45.55-.85,1-1.19,1.46a7,7,0,0,1-1.35,1.3c-.9.87-1.84,1.7-2.79,2.51A7.45,7.45,0,0,0,342,115a12.46,12.46,0,0,0-3,2,29.63,29.63,0,0,1-3,2.27c-.23.11-.31.21-.26.32s0,.16-.25.16a1.43,1.43,0,0,0-.85.49l-1,1a4.4,4.4,0,0,0-1,.65l-.67.65c-.12.22-.29.24-.51.08s-.4-.19-.51-.08a2.53,2.53,0,0,1-.68.89c-.22.16-.62.41-1.18.73-.23.11-.28.19-.17.24s0,.09-.34.09c-.57.1-.87.24-.93.4a1.77,1.77,0,0,1-.42.57.8.8,0,0,1-.76.24.86.86,0,0,0-.77.24,3.46,3.46,0,0,0-.93,1.54c-.17.6-.65.84-1.44.73-.22.76-.17,1.22.17,1.38s.28.46-.17.89c.23.33.26.57.09.73a.81.81,0,0,1-.59.25,2.13,2.13,0,0,1-.6-.08c-.17-.06-.19,0-.08.08a1.08,1.08,0,0,1,.34,1.54A9.81,9.81,0,0,0,321.7,134.94Zm-18.62,15.57.6-.57a.79.79,0,0,0,.25-.57c0-.21.11-.32.34-.32s.34-.06.34-.16a1.31,1.31,0,0,0,.17-1.06c-.12-.27,0-.51.33-.73l.51-1.46a1.46,1.46,0,0,0,.17-.4c0-.06.11-.19.34-.41a1.3,1.3,0,0,0,.25-.73,6.47,6.47,0,0,0,.09-.72,2.12,2.12,0,0,0,.42-1.38,1.12,1.12,0,0,1,.59-1.06.48.48,0,0,0,.09-.48,2.05,2.05,0,0,1-.09-.49H308c.11-.11.11-.24,0-.41s-.11-.29,0-.4.14-.14.42-.08a4.3,4.3,0,0,0,.6.08,1.58,1.58,0,0,0,.34-1.14v-1.29a1.41,1.41,0,0,1,1.1.32c.17.22.47.27.93.16a.64.64,0,0,1,.08-.73,2.11,2.11,0,0,0,.42-.56,1.86,1.86,0,0,0,.17-.89,5,5,0,0,1,.17-1.22,1.73,1.73,0,0,1,.76-.16c.29,0,.43-.11.43-.33a.34.34,0,0,0,.08-.4,1.67,1.67,0,0,1-.08-.57,6,6,0,0,1,.51-1.3l.5-1a10.45,10.45,0,0,1,.51-1.7,1.23,1.23,0,0,0-.51-1.54c-.11.32-.62.48-1.52.48-.11.44,0,.71.25.81a2.52,2.52,0,0,1,.77.49c-1.25-.32-1.75-.13-1.53.57a1.74,1.74,0,0,1-.17,1.7c0,.22-.19.38-.59.49a1.14,1.14,0,0,0-.76.48c-.11.11-.11.27,0,.49a.68.68,0,0,1,0,.65.69.69,0,0,1-.51.16.74.74,0,0,0-.51.16,2,2,0,0,0,0,1.14,1.47,1.47,0,0,1,0,1,1.64,1.64,0,0,0-1.35,1.3c-.23.54-.48,1.08-.76,1.62a4.78,4.78,0,0,1-.76,1.13V140c0,.22-.06.32-.17.32a.48.48,0,0,0-.34.17,2.15,2.15,0,0,0-.09,1c.06.38-.19.51-.76.41-.23-.76-.14-1.3.26-1.63s.31-.7-.26-1.13c.34.32.65.38.93.16a2.26,2.26,0,0,0,.68-1,4.21,4.21,0,0,0,.25-1.38,1.08,1.08,0,0,0-.5-1l-.77.73c-.28.27-.31.78-.08,1.54a1.35,1.35,0,0,0-1.1.73c-.17.37-.71.46-1.61.24.11.43.06.7-.17.81a2.59,2.59,0,0,0-.67.49,5.13,5.13,0,0,0-.6.65,1.4,1.4,0,0,1-1.1.32V140c-.56,0-.84.05-.84.16a1,1,0,0,0,.25.49,7.69,7.69,0,0,1,.51.73,1,1,0,0,1,.08.89,11.6,11.6,0,0,0-1.27,1l-1.1,1.06c-.45.43-.9.83-1.35,1.21a5.79,5.79,0,0,0-1,1.06,1,1,0,0,0-.33.73.79.79,0,0,1-.17.57,1.51,1.51,0,0,1-1,.48c-.11.11-.11.27,0,.49s.11.37,0,.48a1.08,1.08,0,0,1-.68.49,1,1,0,0,0-.67.65.94.94,0,0,0-.26.89,1,1,0,0,1-.25.89l-.51.65a5.78,5.78,0,0,0-.59.65,8.47,8.47,0,0,1-.59.65,2.32,2.32,0,0,0-.34,1,18.56,18.56,0,0,0-1,2.27V158c0,.21-.08.32-.25.32s-.26.05-.26.16a10.27,10.27,0,0,0-.33,2.52,23.92,23.92,0,0,1-.17,2.67,1.38,1.38,0,0,0,1.44-.65l.93-1.29c.33-.33.7-.65,1.1-1s.59-.59.59-.81.05-.46.17-.4a.31.31,0,0,0,.34-.08.76.76,0,0,0,.25-.73.75.75,0,0,1,.25-.73,1.07,1.07,0,0,1,.6-.49,2.3,2.3,0,0,0,.76-.49c.11-.1.11-.24,0-.4s-.12-.3,0-.41a1.1,1.1,0,0,1,.51-.24,1.23,1.23,0,0,0,.5-.24,1.31,1.31,0,0,0,.26-1,.84.84,0,0,1,.25-.81,1,1,0,0,1,.59-.48,2.34,2.34,0,0,0,.77-.49,5.33,5.33,0,0,0,.33-.89,3.09,3.09,0,0,0,.17-.73c0-.22.06-.3.17-.24A.3.3,0,0,0,299,151a5,5,0,0,0,.34-1.14c.11-.54.45-.7,1-.49a3.25,3.25,0,0,0-.94,1.79,2.11,2.11,0,0,0,.43,2.27,2.38,2.38,0,0,1,.67-1.54,4.44,4.44,0,0,0,.85-.89c-.11.43,0,.72.25.89a1.12,1.12,0,0,1,.43,1.05c-.34-.43-.62-.57-.85-.4a1.89,1.89,0,0,0-.59.81,1.94,1.94,0,0,0-.17,1.13.9.9,0,0,0,.42.73,3.51,3.51,0,0,1,1.36-2A2.77,2.77,0,0,0,303.08,150.51Zm4.91-6.16a1.38,1.38,0,0,1,.59-.16c.17,0,.31-.11.43-.33a2,2,0,0,1,.59-1.62c.39-.32.31-.76-.25-1.3.78.11,1.07,0,.84-.24a1.17,1.17,0,0,1-.34-.73l.17-.16c.23,0,.34-.11.34-.33a4.68,4.68,0,0,1,.42-.64,1.44,1.44,0,0,0,.09-1.14c-.91-.11-1.41.35-1.52,1.38s-.23,1.81-.34,2.35a4.3,4.3,0,0,1-.6-.08c-.28-.06-.42,0-.42.08a2.84,2.84,0,0,0-.25,1.62,3.73,3.73,0,0,1-.26,1.78c-.56-.1-.82.14-.76.73s-.31.79-1.1.57a.52.52,0,0,0,.09.81.88.88,0,0,1,.42.65,1.31,1.31,0,0,0-.59.33c-.29.21-.43.37-.43.48a1.74,1.74,0,0,0,0,1.06,1.58,1.58,0,0,1,0,1,.83.83,0,0,1-.59.16.6.6,0,0,0-.59.33,1.25,1.25,0,0,0-.17,1.05c.11.27,0,.57-.34.89a2.05,2.05,0,0,0,.09.49.48.48,0,0,1-.09.48h-.34c-.11,0-.14.11-.08.33a2.45,2.45,0,0,1,.08.48,2.53,2.53,0,0,1-.67.73c-.34.27-.46.52-.34.73s.11.14.34.08.28.09.17.41a4.12,4.12,0,0,0-.6.08,1.21,1.21,0,0,0-.59.24,2.1,2.1,0,0,0-.25,1.3,1.6,1.6,0,0,1-.26,1.14c.57.1.85,0,.85-.25a1,1,0,0,1,.34-.73,12.78,12.78,0,0,1,.84-1.21,2.62,2.62,0,0,0,.51-1.06l.34-.32a.15.15,0,0,0,.17-.16.32.32,0,0,0-.17-.49.52.52,0,0,1-.34-.49,3.59,3.59,0,0,1,.59-.4,3.5,3.5,0,0,0,.6-.41,1.47,1.47,0,0,0,.42-.64c.06-.22.25-.33.59-.33a2.19,2.19,0,0,0-.17-1l-.34-.65a3.2,3.2,0,0,1,1.78-.81c.73-.11,1.1-.65,1.1-1.62a.56.56,0,0,1-.51-.25c-.11-.16-.28-.08-.5.25,0,.21-.15.35-.43.4s-.42-.08-.42-.4a4.85,4.85,0,0,1,1.61-2A1.67,1.67,0,0,0,308,144.35Zm-3.38-.49c.45.11.56.27.34.49s-.34.38-.34.48a1.93,1.93,0,0,0,.08.49c.06.22,0,.32-.08.32h-.68a6.63,6.63,0,0,0-.42,2.19c-.06.92-.54,1.27-1.44,1.06q-.35-.33,0-.33a.73.73,0,0,0,.51-.16,2.76,2.76,0,0,0-.17-.65c-.12-.32-.06-.54.17-.65q0-.15.42,0t.42,0a4.1,4.1,0,0,0,.34-1.62A2.28,2.28,0,0,1,304.61,143.86Zm-1.53-6.16q.51,0,.51.57c0,.38.11.35.34-.08a.66.66,0,0,0-.17-.49,1.88,1.88,0,0,1-.34-.49c.79.22,1.33,0,1.61-.56s.14-1-.42-1.22a3.56,3.56,0,0,1-.77,1.22A4.18,4.18,0,0,0,303.08,137.7Zm3.39-2.76a2.54,2.54,0,0,1,1.35.25c.23.16.45-.08.68-.73a1.29,1.29,0,0,0-1.19-.57C306.86,134,306.58,134.29,306.47,134.94Zm2.88,14.92a1.78,1.78,0,0,0-1.78,1c-.51.76-.54,1.24-.09,1.46a.83.83,0,0,1,.34-.73,4,4,0,0,1,.68-.4,2.49,2.49,0,0,0,.59-.41A1.21,1.21,0,0,0,309.35,149.86Zm-.85-18.48a.78.78,0,0,1-.59.4.51.51,0,0,0-.43.57.65.65,0,0,0,.34.65l.68.32c-.23-1-.11-1.59.34-1.86a1.22,1.22,0,0,0,.51-1.38c-.57-.22-.79-.13-.68.24A1.21,1.21,0,0,1,308.5,131.38Zm.85,16.21c-.23-.11-.23-.43,0-1H308a1,1,0,0,0,.42,1.3C308.92,148.24,309.23,148.13,309.35,147.59Zm0-2a2.54,2.54,0,0,1,.5-.64c.23-.22.06-.44-.5-.65a1,1,0,0,1-.34.65C308.78,145.21,308.89,145.43,309.35,145.64Zm4.06,2.28c-.23.53-.45,1.05-.68,1.54a2.13,2.13,0,0,1-1.35,1C311.26,148.89,311.94,148,313.41,147.92Zm-1.19-9.25c0,.11-.19.35-.59.73s-.31.57.25.57a5,5,0,0,0,1.53-3.24c-.91-.22-1.27,0-1.1.56A1.58,1.58,0,0,1,312.22,138.67Zm3.22-13.29v-1h-1v1Zm.85-1c.78.32,1.29,0,1.52-.82s.05-1.4-.51-1.62c.11.87-.08,1.33-.59,1.38S316.06,123.76,316.29,124.41Zm.5,7.45c1,0,1.53-.48,1.53-1.46-.68-.21-1.05-.08-1.1.41A1.65,1.65,0,0,1,316.79,131.86Zm2.88-16.05a2.92,2.92,0,0,1-.42,2.19,5.37,5.37,0,0,0-.93,1.7c.33.22.56.25.67.08a2.27,2.27,0,0,0,.26-.48,1.89,1.89,0,0,1,.25-.49c.11-.16.34-.19.68-.08a2.72,2.72,0,0,0-.09-1.46c-.17-.65,0-1,.6-1s.64.13.59.4.08.47.42.57a3.58,3.58,0,0,1,.93-1.46c.51-.54.37-1-.42-1.3a1.57,1.57,0,0,1-.25,1.06.72.72,0,0,1-.68.16l-.93-.16C320,115.52,319.78,115.6,319.67,115.81Zm-.51,9.57v-1h-.84v1Zm-.51-22.54a8.66,8.66,0,0,1,1.7-2.11c.79-.75.9-1.4.34-1.94a3.09,3.09,0,0,1-1.53,2C318.26,101.41,318.09,102.09,318.65,102.84Zm0,30.48c.57.22,1,.22,1.19,0a1.44,1.44,0,0,0,.42-.81,6.23,6.23,0,0,0,.09-1.13,1.3,1.3,0,0,1,.34-1h-1.53c.23.76.14,1.25-.25,1.46S318.43,132.57,318.65,133.32Zm1.53-13.62c-.57,0-.71.19-.43.57a1.7,1.7,0,0,1,.43.89,1.33,1.33,0,0,1-.51.16.5.5,0,0,1-.34.17h-.17a1.86,1.86,0,0,0-.25,1.29,1.88,1.88,0,0,1-.26,1.3,1.55,1.55,0,0,0,1.27-.32,1.49,1.49,0,0,0,.77-1.3c0-.11-.15-.19-.43-.24s-.31-.3-.08-.73a1.3,1.3,0,0,1,.51-.17.68.68,0,0,0,.5-.16,2.84,2.84,0,0,0,.43-1.78c-.06-.65-.37-1-.93-1a1.62,1.62,0,0,0-.17.81C320.52,119.54,320.4,119.7,320.18,119.7Zm1.52,4.38a3,3,0,0,0,.85.41,2.93,2.93,0,0,1,.84.4c.11-.75-.14-1.16-.76-1.21S321.7,123.76,321.7,124.08Zm1-12.48c.34-.11.45-.49.34-1.14s-.4-.59-.85.16a2.82,2.82,0,0,0,.08.65A.4.4,0,0,0,322.72,111.6Z"/><text class="cls-2" transform="translate(115.4 166.94) scale(1.09 1)">Go incognito. </text></svg>
