<?xml version="1.0" standalone="no"?>
<!DOCTYPE svg PUBLIC "-//W3C//DTD SVG 20010904//EN"
 "http://www.w3.org/TR/2001/REC-SVG-20010904/DTD/svg10.dtd">
<svg version="1.0" xmlns="http://www.w3.org/2000/svg"
 width="512.000000pt" height="512.000000pt" viewBox="0 0 512.000000 512.000000"
 preserveAspectRatio="xMidYMid meet">
<metadata>
Created by potrace 1.11, written by Peter Selinger 2001-2013
</metadata>
<g transform="translate(0.000000,512.000000) scale(0.100000,-0.100000)"
fill="#000000" stroke="none">
<path d="M2910 3790 c-14 -5 -52 -15 -85 -23 -108 -27 -348 -131 -365 -158 -3
-4 -37 -25 -75 -45 -39 -19 -78 -44 -88 -55 -10 -10 -24 -19 -31 -19 -7 0 -21
-9 -31 -20 -10 -11 -23 -20 -30 -20 -7 0 -26 -12 -43 -27 -16 -16 -70 -59
-119 -98 -97 -77 -286 -267 -318 -319 -11 -18 -41 -64 -66 -102 -25 -38 -53
-82 -61 -99 -8 -16 -22 -43 -31 -60 -28 -54 -50 -169 -43 -227 19 -156 28
-191 62 -238 18 -25 45 -52 59 -60 15 -8 35 -30 45 -50 19 -36 121 -139 175
-176 51 -36 158 -57 305 -61 443 -13 460 -15 460 -30 0 -15 -26 -39 -90 -81
-19 -13 -40 -30 -45 -37 -12 -14 -33 -26 -196 -106 -178 -88 -239 -115 -333
-144 -80 -25 -92 -26 -127 -15 -36 12 -41 12 -54 -6 -8 -10 -15 -27 -15 -37 0
-25 43 -90 74 -110 16 -11 26 -27 26 -41 0 -29 76 -102 116 -112 40 -10 195
24 279 61 120 54 181 84 253 126 45 27 85 49 87 49 14 0 119 82 179 139 143
137 173 226 121 357 -48 123 -77 174 -118 209 -22 19 -47 35 -54 35 -8 0 -31
9 -51 19 -53 27 -157 41 -537 70 -147 12 -211 21 -285 44 -42 12 -45 16 -44
45 1 18 18 56 38 86 20 30 36 58 36 62 0 5 9 17 20 29 29 29 71 83 115 145 22
30 50 64 64 75 13 11 32 28 40 38 9 10 36 37 60 60 24 23 69 67 100 97 31 30
74 69 96 85 21 17 61 48 89 69 28 22 92 67 141 100 114 77 125 84 153 96 12 5
22 14 22 19 0 16 86 62 102 56 9 -4 19 4 26 19 14 31 55 43 88 26 17 -10 30
-11 47 -3 50 23 124 33 251 33 140 0 208 -14 234 -47 31 -42 1 -188 -61 -293
-18 -30 -50 -90 -71 -132 -22 -43 -66 -107 -100 -145 -68 -74 -106 -131 -106
-157 0 -9 12 -22 26 -28 21 -10 31 -9 56 5 16 9 39 17 50 17 33 0 153 69 194
111 22 22 48 44 60 49 12 5 35 32 53 62 17 29 45 75 62 102 31 51 59 139 59
190 0 59 -50 208 -95 286 -9 14 -29 51 -47 83 -59 108 -116 151 -283 212 -65
23 -82 25 -235 24 -91 -1 -176 -5 -190 -9z m220 -190 c0 -21 15 -27 25 -10 9
15 25 12 25 -4 0 -16 -21 -26 -58 -26 -24 -1 -25 -2 -10 -14 20 -15 6 -36 -25
-36 -14 0 -17 5 -12 20 5 17 2 20 -22 20 -35 0 -127 -56 -118 -71 5 -7 13 -5
25 6 22 20 100 33 100 16 0 -6 -9 -11 -21 -11 -15 0 -19 -5 -15 -15 3 -8 1
-15 -3 -15 -5 0 -11 5 -13 11 -2 6 -21 3 -52 -10 -79 -35 -137 -21 -121 28 4
15 1 20 -17 23 -21 4 -21 5 -4 13 13 6 21 3 29 -11 7 -10 12 -22 12 -26 0 -5
3 -8 8 -8 4 0 12 0 17 0 6 0 10 8 10 18 0 14 2 15 10 2 14 -23 21 -7 11 28
l-10 32 39 -6 c27 -4 48 -1 72 11 18 10 49 26 68 36 45 23 50 23 50 -1z m37
-66 c-3 -3 -12 -4 -19 -1 -8 3 -5 6 6 6 11 1 17 -2 13 -5z m-410 -50 c-3 -3
-12 -4 -19 -1 -8 3 -5 6 6 6 11 1 17 -2 13 -5z m73 -59 c10 -12 9 -16 -4 -21
-22 -8 -46 2 -46 21 0 19 34 20 50 0z m-150 -35 c7 -12 7 -20 1 -20 -5 0 -13
-9 -16 -20 -3 -11 -13 -20 -21 -20 -19 0 -18 9 4 33 17 19 16 20 -23 13 -22
-4 -38 -6 -35 -3 3 3 9 6 13 6 4 0 15 7 23 16 21 21 41 19 54 -5z m-124 -35
c-5 -18 -2 -25 8 -25 27 0 27 -19 2 -45 -14 -14 -21 -25 -16 -25 17 0 11 -17
-7 -24 -10 -3 -24 -9 -32 -12 -10 -5 -12 0 -6 24 5 24 3 31 -12 35 -12 3 -9 5
10 6 15 0 27 3 27 5 0 2 3 13 7 23 5 15 4 16 -8 7 -8 -6 -31 -15 -53 -18 -38
-7 -38 -7 -23 15 20 28 67 59 91 59 14 0 17 -5 12 -25z m-131 -74 c-9 -15 -66
-41 -76 -35 -15 9 -10 32 9 37 32 9 73 7 67 -2z"/>
</g>
</svg>
